<svg xmlns="http://www.w3.org/2000/svg" xmlns:xlink="http://www.w3.org/1999/xlink" zoomAndPan="magnify" viewBox="564 150 329 434" preserveAspectRatio="xMidYMid meet" version="1.0"><defs><clipPath id="2b1e5e2c9d"><path d="M 576 330 L 681 330 L 681 572.417969 L 576 572.417969 Z M 576 330 " clip-rule="nonzero"/></clipPath><clipPath id="6b6164df65"><path d="M 736 162.167969 L 756 162.167969 L 756 248 L 736 248 Z M 736 162.167969 " clip-rule="nonzero"/></clipPath></defs><path fill="#c96028" d="M 624.101562 363.867188 C 622.835938 364.984375 620.523438 360.210938 620.371094 359.765625 C 618.433594 354.691406 618.058594 348.875 618.359375 343.503906 C 619.179688 322.242188 627.90625 301.28125 630.742188 280.246094 C 630.890625 279.277344 631.039062 282.1875 631.261719 283.15625 C 631.636719 284.796875 632.082031 286.4375 632.457031 288.003906 C 633.875 293.601562 635.441406 299.195312 636.410156 305.011719 C 638.796875 319.484375 637.527344 334.925781 635.960938 349.46875 C 635.214844 355.363281 635.367188 363.195312 628.128906 364.164062 " fill-opacity="1" fill-rule="evenodd"/><path fill="#d97538" d="M 627.160156 357.972656 C 622.3125 357.601562 623.132812 346.484375 623.207031 344.023438 C 623.65625 334.027344 631.1875 298.671875 631.1875 299.046875 C 630.367188 305.683594 636.859375 358.644531 627.160156 357.972656 Z M 627.160156 357.972656 " fill-opacity="1" fill-rule="evenodd"/><g clip-path="url(#2b1e5e2c9d)"><path fill="#ffffff" d="M 582.554688 556.167969 C 581.734375 521.257812 578.226562 381.171875 578.078125 376.921875 C 577.855469 370.503906 570.621094 329.628906 591.355469 330.074219 C 602.621094 330.300781 610.003906 350.140625 612.914062 358.867188 C 614.40625 363.417969 617.238281 371.550781 623.132812 371.847656 C 635.292969 372.519531 639.320312 363.792969 648.941406 359.019531 C 654.089844 356.480469 656.476562 362.671875 660.949219 361.703125 C 663.636719 361.105469 668.933594 352.753906 671.320312 354.394531 C 675.273438 357.152344 674.824219 369.238281 675.050781 373.191406 C 676.390625 393.179688 679.972656 544.976562 680.269531 555.867188 C 680.417969 561.984375 655.058594 571.609375 633.5 572.128906 C 611.644531 572.652344 582.851562 568.25 582.554688 556.167969 Z M 582.554688 556.167969 " fill-opacity="1" fill-rule="evenodd"/></g><path fill="#ffffff" d="M 626.5625 343.128906 C 626.5625 343.054688 626.5625 342.90625 626.5625 342.832031 C 626.636719 342.683594 626.714844 342.609375 626.714844 342.53125 C 626.9375 342.308594 627.160156 342.308594 627.308594 342.382812 C 627.460938 342.382812 627.609375 342.457031 627.757812 342.757812 C 627.757812 342.757812 627.832031 342.832031 627.832031 342.980469 C 627.832031 343.054688 627.832031 343.128906 627.832031 343.351562 C 627.832031 343.875 627.90625 344.996094 627.90625 346.484375 C 627.980469 348.796875 628.054688 352.15625 628.054688 355.808594 C 628.054688 357.824219 628.054688 359.914062 628.054688 362 C 628.054688 364.164062 628.054688 366.253906 627.980469 368.191406 C 627.90625 372.519531 627.832031 376.101562 627.832031 377.515625 C 627.832031 377.964844 627.460938 378.261719 627.085938 378.261719 C 626.636719 378.261719 626.339844 377.890625 626.339844 377.515625 C 626.339844 376.101562 626.265625 372.59375 626.191406 368.191406 C 626.191406 366.253906 626.117188 364.164062 626.191406 362 C 626.191406 359.914062 626.191406 357.824219 626.265625 355.808594 C 626.339844 352.15625 626.414062 348.875 626.414062 346.484375 C 626.414062 344.996094 626.488281 343.949219 626.488281 343.429688 L 626.636719 343.429688 C 626.636719 343.351562 626.5625 343.351562 626.5625 343.277344 C 626.5625 343.128906 626.5625 343.128906 626.5625 343.128906 Z M 626.5625 343.351562 C 626.5625 343.351562 626.5625 343.277344 626.5625 343.351562 L 626.5625 343.203125 C 626.042969 343.203125 626.191406 343.277344 626.5625 343.351562 Z M 668.113281 357.003906 C 667.738281 356.855469 667.292969 357.003906 667.140625 357.453125 C 666.246094 359.613281 664.007812 363.71875 661.546875 367 C 659.832031 369.3125 658.042969 371.175781 656.476562 371.699219 C 655.132812 372.144531 653.789062 372.144531 652.449219 372.070312 C 650.957031 371.996094 649.464844 371.847656 647.972656 371.921875 C 646.628906 372.070312 645.285156 372.371094 644.019531 373.191406 C 642.824219 373.9375 641.183594 374.457031 639.394531 375.054688 C 636.933594 375.875 634.320312 376.921875 632.234375 378.710938 C 630.144531 380.5 628.578125 383.035156 628.28125 386.914062 C 627.609375 395.121094 627.160156 407.726562 625.59375 416.679688 C 624.996094 420.183594 624.25 423.09375 623.207031 424.957031 C 622.609375 426.003906 622.015625 426.671875 621.191406 426.597656 C 620.671875 426.597656 620.371094 426.152344 620.074219 425.628906 C 619.476562 424.4375 619.105469 422.570312 618.878906 420.332031 C 617.984375 410.5625 619.703125 393.628906 617.761719 386.765625 C 617.015625 384.15625 615.671875 382.8125 613.808594 383.1875 C 611.125 383.632812 609.035156 382.289062 607.320312 380.054688 C 603.738281 375.429688 601.574219 367.296875 599.1875 362.300781 C 598.667969 361.105469 598.144531 359.988281 597.621094 358.792969 C 596.875 357.003906 596.128906 355.214844 595.457031 353.421875 C 595.382812 353.273438 594.789062 351.558594 594.414062 350.960938 C 594.117188 350.515625 593.742188 350.441406 593.59375 350.441406 C 593.222656 350.515625 592.996094 350.8125 592.996094 351.1875 C 592.996094 351.410156 593.144531 351.558594 593.296875 351.632812 C 593.59375 352.15625 594.117188 353.722656 594.191406 353.871094 C 594.863281 355.585938 595.535156 357.375 596.277344 359.09375 C 596.054688 359.242188 595.90625 359.242188 595.757812 359.464844 C 595.609375 359.539062 595.457031 359.6875 595.382812 359.839844 C 595.160156 359.839844 594.9375 359.914062 594.789062 360.0625 C 593.816406 361.179688 593.296875 362.746094 592.996094 364.464844 C 592.625 366.777344 592.699219 369.3125 592.625 371.101562 C 592.398438 377.070312 592.996094 383.335938 592.921875 389.453125 C 592.847656 392.0625 592.699219 394.597656 592.25 397.136719 C 592.027344 398.402344 591.058594 400.640625 589.863281 401.460938 C 589.714844 401.535156 589.566406 401.609375 589.417969 401.609375 C 589.34375 401.609375 589.265625 401.535156 589.117188 401.386719 C 588.894531 401.164062 588.746094 400.789062 588.523438 400.269531 C 588 398.851562 587.699219 397.359375 587.625 395.867188 C 587.476562 393.480469 587.625 391.019531 587.699219 388.78125 C 587.925781 385.050781 588.148438 381.320312 588.148438 377.589844 C 588.148438 375.054688 588.074219 372.59375 587.851562 370.058594 C 587.777344 369.609375 587.777344 367.074219 587.402344 365.582031 C 587.328125 365.132812 587.179688 364.761719 586.953125 364.539062 C 586.804688 364.386719 586.65625 364.238281 586.507812 364.164062 C 586.132812 364.015625 585.761719 364.164062 585.613281 364.539062 C 585.464844 364.835938 585.613281 365.132812 585.835938 365.359375 C 585.835938 365.359375 585.910156 365.359375 585.910156 365.433594 L 585.984375 365.433594 C 585.984375 365.433594 585.984375 365.433594 585.910156 365.433594 C 585.910156 365.507812 585.910156 365.65625 585.984375 365.730469 C 586.132812 366.179688 586.210938 366.851562 586.210938 367.519531 C 586.285156 368.714844 586.285156 369.984375 586.359375 370.28125 C 586.507812 372.742188 586.582031 375.203125 586.507812 377.667969 C 586.433594 381.394531 586.132812 385.050781 585.910156 388.78125 C 585.761719 391.09375 585.539062 393.628906 585.6875 396.089844 C 585.835938 397.804688 586.132812 399.523438 586.65625 401.089844 C 587.179688 402.429688 587.851562 403.175781 588.445312 403.476562 C 589.265625 403.847656 590.089844 403.699219 590.832031 403.175781 C 592.324219 402.132812 593.742188 399.222656 594.042969 397.65625 C 594.488281 395.046875 594.636719 392.359375 594.710938 389.675781 C 594.789062 383.558594 594.042969 377.292969 594.191406 371.324219 C 594.265625 369.609375 594.117188 367.148438 594.488281 364.910156 C 594.710938 363.492188 595.085938 362.226562 595.832031 361.332031 C 595.90625 361.253906 595.980469 361.105469 595.980469 360.957031 C 596.054688 360.957031 596.128906 360.957031 596.128906 360.957031 C 596.203125 360.957031 596.128906 361.03125 596.203125 361.105469 C 596.277344 361.105469 596.203125 361.179688 596.277344 361.179688 C 596.355469 361.179688 596.355469 361.253906 596.429688 361.253906 C 596.503906 361.253906 596.503906 361.253906 596.578125 361.253906 C 596.726562 361.179688 596.800781 361.179688 596.875 361.105469 C 597.175781 361.777344 597.472656 362.523438 597.769531 363.195312 C 600.15625 368.417969 602.320312 376.621094 605.976562 381.394531 C 608.066406 384.15625 610.675781 385.722656 614.03125 385.199219 C 614.777344 385.050781 615.226562 385.648438 615.597656 386.46875 C 616.121094 387.585938 616.417969 389.152344 616.570312 391.09375 C 617.089844 396.390625 616.71875 404.148438 616.644531 411.082031 C 616.570312 416.527344 616.71875 421.453125 617.464844 424.660156 C 617.761719 425.925781 618.210938 426.898438 618.730469 427.570312 C 619.328125 428.390625 620.074219 428.835938 620.96875 428.910156 C 622.089844 428.984375 623.132812 428.539062 624.027344 427.492188 C 625.070312 426.300781 625.890625 424.285156 626.5625 421.675781 C 628.875 412.800781 629.398438 397.136719 630.070312 387.4375 C 630.292969 384.15625 631.636719 381.992188 633.351562 380.425781 C 635.292969 378.785156 637.679688 377.816406 639.914062 377.070312 C 641.855469 376.398438 643.644531 375.800781 644.914062 374.980469 C 645.957031 374.308594 647.003906 374.085938 648.046875 373.9375 C 649.464844 373.789062 650.882812 373.9375 652.296875 374.011719 C 653.863281 374.085938 655.429688 374.011719 656.921875 373.5625 C 658.714844 372.964844 660.800781 370.878906 662.742188 368.191406 C 665.277344 364.761719 667.589844 360.507812 668.484375 358.273438 C 668.707031 357.601562 668.484375 357.152344 668.113281 357.003906 Z M 585.761719 365.210938 C 585.761719 365.210938 585.761719 365.210938 585.835938 365.285156 L 585.761719 365.210938 C 585.835938 365.210938 585.835938 365.210938 585.761719 365.210938 Z M 585.761719 365.210938 " fill-opacity="1" fill-rule="evenodd"/><path fill="#0a0a24" d="M 594.9375 345.292969 C 594.339844 344.398438 593.667969 343.578125 592.847656 342.832031 C 592.699219 342.683594 591.503906 341.9375 591.058594 341.5625 C 590.683594 341.265625 590.609375 340.964844 590.609375 340.816406 C 590.609375 340.445312 590.910156 340.144531 591.28125 340.144531 C 591.503906 340.144531 591.65625 340.21875 591.804688 340.371094 C 591.878906 340.445312 591.953125 340.59375 591.953125 340.742188 C 591.953125 340.742188 591.953125 340.519531 591.953125 340.445312 C 592.476562 340.816406 593.667969 341.488281 593.816406 341.636719 C 594.789062 342.457031 595.535156 343.351562 596.277344 344.324219 C 596.949219 345.292969 597.546875 346.335938 598.144531 347.382812 C 598.890625 348.796875 599.488281 350.289062 600.007812 351.855469 C 600.53125 353.347656 600.980469 354.914062 601.351562 356.40625 C 602.171875 359.390625 602.84375 362.449219 603.960938 365.285156 C 604.484375 366.699219 605.15625 368.042969 605.902344 369.386719 C 606.125 369.757812 606.050781 370.207031 605.679688 370.429688 C 605.304688 370.65625 604.855469 370.578125 604.632812 370.207031 C 603.289062 368.117188 602.320312 365.953125 601.5 363.71875 C 600.605469 361.105469 599.859375 358.421875 599.1875 355.808594 C 598.441406 353.273438 597.769531 350.664062 596.578125 348.203125 C 596.054688 347.15625 595.535156 346.1875 594.9375 345.292969 Z M 591.804688 340.445312 C 591.878906 340.445312 591.878906 340.445312 591.804688 340.445312 L 591.878906 340.519531 C 591.878906 340.371094 591.878906 340.296875 591.804688 340.445312 Z M 606.648438 353.871094 C 606.871094 354.320312 607.019531 354.839844 607.167969 355.289062 C 607.320312 355.585938 607.394531 355.960938 607.542969 356.257812 C 607.691406 356.554688 607.839844 356.929688 607.992188 357.226562 C 608.363281 357.972656 608.660156 358.71875 609.035156 359.390625 C 609.183594 359.765625 609.632812 359.914062 610.078125 359.765625 C 610.453125 359.613281 610.601562 359.167969 610.453125 358.71875 C 610.152344 357.972656 609.929688 357.078125 609.632812 356.109375 C 609.480469 355.734375 609.40625 355.363281 609.257812 355.0625 C 609.183594 354.839844 609.035156 354.617188 608.960938 354.394531 C 608.4375 353.347656 607.765625 352.378906 607.09375 351.707031 C 606.871094 351.410156 606.421875 351.335938 606.125 351.632812 C 605.828125 351.855469 605.753906 352.304688 605.976562 352.601562 C 606.273438 352.902344 606.421875 353.347656 606.648438 353.871094 Z M 634.246094 375.726562 C 633.128906 376.695312 632.160156 377.742188 631.113281 378.710938 C 630.367188 379.382812 629.621094 380.054688 628.875 380.648438 C 628.503906 380.949219 628.054688 381.246094 627.609375 381.546875 C 627.160156 381.84375 626.714844 382.066406 626.265625 382.289062 C 625.890625 382.515625 624.773438 382.8125 624.476562 382.8125 C 623.730469 382.8125 623.582031 382.289062 623.730469 381.992188 C 623.730469 381.917969 623.804688 381.695312 624.101562 381.546875 C 624.25 381.394531 624.550781 381.394531 624.699219 381.46875 C 624.996094 381.320312 625.371094 381.097656 625.519531 381.023438 C 625.890625 380.800781 626.265625 380.5 626.636719 380.277344 C 627.011719 379.976562 627.308594 379.679688 627.683594 379.382812 C 628.203125 378.933594 628.726562 378.410156 629.25 377.890625 C 630.070312 377.144531 630.890625 376.398438 631.710938 375.652344 C 632.679688 374.832031 633.648438 374.085938 634.769531 373.414062 C 635.140625 373.191406 635.589844 373.265625 635.8125 373.636719 C 636.039062 374.011719 635.960938 374.457031 635.589844 374.683594 C 635.140625 374.90625 634.695312 375.355469 634.246094 375.726562 Z M 624.625 381.46875 C 624.476562 381.394531 624.402344 381.320312 624.402344 381.46875 C 624.402344 381.46875 624.476562 381.46875 624.625 381.46875 Z M 670.425781 400.117188 C 670.871094 400.117188 671.171875 399.746094 671.171875 399.296875 C 671.019531 396.164062 670.871094 392.957031 670.796875 389.824219 C 670.722656 386.988281 670.722656 384.082031 670.648438 381.246094 C 670.648438 379.308594 670.574219 377.441406 670.574219 375.503906 L 670.425781 367.296875 L 670.351562 364.910156 C 670.351562 364.6875 670.273438 363.941406 670.199219 363.644531 C 670.199219 363.644531 670.199219 363.644531 670.199219 363.566406 C 670.199219 363.269531 670.050781 363.046875 669.828125 362.898438 C 669.828125 362.898438 668.859375 362.898438 668.933594 363.71875 C 668.933594 364.015625 669.007812 364.6875 669.007812 364.910156 L 669.007812 367.222656 L 668.785156 375.429688 C 668.785156 377.441406 668.707031 379.382812 668.707031 381.394531 C 668.707031 383.410156 668.785156 385.347656 668.859375 387.363281 C 669.007812 391.390625 669.304688 395.34375 669.605469 399.296875 C 669.605469 399.820312 669.976562 400.117188 670.425781 400.117188 Z M 671.617188 412.277344 C 671.617188 411.902344 671.617188 411.53125 671.542969 411.234375 C 671.542969 410.710938 671.46875 410.1875 671.394531 409.59375 L 671.171875 407.355469 C 671.171875 407.054688 671.246094 406.535156 671.246094 406.308594 C 671.246094 406.085938 671.097656 405.863281 671.019531 405.789062 C 670.871094 405.636719 670.574219 405.488281 670.199219 405.636719 C 669.828125 405.789062 669.679688 406.160156 669.753906 406.457031 C 669.753906 406.457031 669.753906 406.535156 669.828125 406.535156 C 669.828125 406.609375 669.753906 406.683594 669.753906 406.757812 C 669.679688 406.980469 669.679688 407.203125 669.679688 407.355469 L 669.605469 409.667969 C 669.605469 410.1875 669.605469 410.710938 669.605469 411.308594 C 669.605469 411.679688 669.679688 412.054688 669.679688 412.351562 C 669.828125 413.695312 669.976562 415.035156 670.125 416.378906 C 670.125 416.828125 670.5 417.125 670.945312 417.050781 C 671.394531 417.050781 671.691406 416.679688 671.691406 416.230469 C 671.691406 414.960938 671.691406 413.621094 671.617188 412.277344 Z M 587.253906 513.871094 C 587.699219 513.871094 588 513.5 588 513.125 C 588 508.652344 587.925781 504.101562 587.777344 499.625 C 587.699219 497.535156 587.625 495.449219 587.550781 493.359375 C 587.476562 491.269531 587.328125 489.183594 587.179688 487.09375 C 587.03125 483.960938 586.804688 480.828125 586.730469 477.695312 C 586.582031 474.5625 586.507812 471.429688 586.507812 468.296875 C 586.507812 467.921875 586.210938 467.625 585.835938 467.625 C 585.464844 467.625 585.164062 467.921875 585.164062 468.296875 C 585.015625 472.773438 585.015625 477.320312 585.089844 481.796875 C 585.164062 483.886719 585.238281 485.976562 585.3125 488.0625 C 585.386719 490.152344 585.464844 492.242188 585.613281 494.328125 C 585.984375 500.59375 586.359375 506.859375 586.433594 513.125 C 586.507812 513.574219 586.878906 513.871094 587.253906 513.871094 Z M 588.371094 528.867188 C 588.296875 528.269531 588.222656 527.671875 588.148438 527.074219 C 588.074219 526.402344 588 525.808594 587.925781 525.285156 C 587.851562 524.6875 587.851562 524.242188 587.925781 523.867188 C 587.925781 523.71875 587.925781 523.570312 588 523.496094 C 588.222656 523.195312 588.148438 522.75 587.851562 522.601562 C 587.550781 522.375 587.105469 522.449219 586.957031 522.75 C 586.730469 523.046875 586.582031 523.496094 586.433594 524.09375 C 586.285156 524.761719 586.285156 525.660156 586.285156 526.703125 C 586.285156 527.226562 586.359375 527.820312 586.359375 528.34375 C 586.433594 528.867188 586.507812 529.460938 586.582031 529.984375 C 586.730469 530.804688 586.878906 531.625 587.03125 532.371094 C 587.253906 533.339844 587.402344 534.160156 587.402344 534.683594 C 587.402344 535.132812 587.777344 535.429688 588.222656 535.429688 C 588.671875 535.429688 588.96875 535.058594 588.96875 534.683594 C 588.96875 534.011719 588.894531 532.746094 588.746094 531.253906 C 588.523438 530.359375 588.445312 529.613281 588.371094 528.867188 Z M 594.488281 556.015625 C 594.488281 556.015625 594.488281 555.867188 594.488281 556.015625 C 594.414062 556.015625 594.414062 556.015625 594.488281 556.015625 C 594.488281 556.09375 594.414062 556.015625 594.488281 556.015625 Z M 594.414062 556.09375 C 594.414062 556.015625 594.414062 556.015625 594.414062 556.09375 Z M 625.890625 562.433594 C 621.269531 563.253906 617.089844 563.105469 613.136719 562.433594 C 612.09375 562.285156 611.125 562.058594 610.078125 561.835938 C 608.585938 561.460938 607.09375 561.089844 605.601562 560.640625 C 602.246094 559.671875 598.890625 558.480469 595.308594 557.285156 C 595.535156 556.988281 595.535156 556.613281 595.234375 556.316406 C 594.9375 556.09375 594.5625 556.09375 594.339844 556.316406 L 594.339844 556.242188 C 594.414062 556.242188 594.339844 556.167969 594.339844 556.167969 C 594.339844 556.167969 594.339844 556.09375 594.339844 556.167969 C 594.339844 556.167969 594.339844 556.09375 594.339844 556.167969 C 594.414062 556.242188 594.339844 556.09375 594.339844 556.019531 C 594.265625 556.019531 594.191406 556.019531 594.191406 556.167969 C 594.191406 556.242188 594.117188 556.167969 594.117188 556.242188 C 593.816406 556.390625 593.667969 556.761719 593.742188 557.0625 C 593.59375 557.136719 593.519531 557.210938 593.445312 557.359375 C 593.296875 557.734375 593.519531 558.105469 593.890625 558.179688 C 597.769531 559.597656 601.351562 561.164062 605.007812 562.359375 C 606.574219 562.878906 608.066406 563.328125 609.632812 563.699219 C 610.675781 563.925781 611.71875 564.148438 612.765625 564.296875 C 616.941406 564.96875 621.269531 564.894531 626.117188 563.851562 C 626.5625 563.773438 626.789062 563.328125 626.714844 562.953125 C 626.714844 562.582031 626.265625 562.359375 625.890625 562.433594 Z M 638.347656 561.238281 C 637.828125 561.3125 637.378906 561.3125 636.859375 561.386719 C 636.558594 561.386719 636.1875 561.460938 635.886719 561.539062 C 635.441406 561.613281 635.066406 561.6875 634.621094 561.835938 C 634.171875 561.910156 633.800781 562.058594 633.351562 562.207031 C 632.980469 562.207031 632.753906 562.582031 632.753906 562.953125 C 632.753906 563.328125 633.128906 563.550781 633.5 563.550781 C 633.949219 563.550781 634.394531 563.625 634.769531 563.625 C 635.214844 563.625 635.664062 563.625 636.039062 563.550781 C 636.410156 563.476562 636.707031 563.402344 637.082031 563.328125 C 637.605469 563.179688 638.125 563.027344 638.574219 562.878906 C 638.945312 562.804688 639.246094 562.359375 639.171875 561.984375 C 639.171875 561.386719 638.722656 561.164062 638.347656 561.238281 Z M 648.496094 560.566406 C 648.496094 560.640625 648.496094 560.640625 648.496094 560.566406 C 648.496094 560.71875 648.570312 560.640625 648.496094 560.566406 Z M 666.097656 552.0625 C 664.234375 552.882812 662.367188 553.707031 660.429688 554.449219 C 659.308594 554.898438 658.191406 555.347656 656.996094 555.867188 C 655.28125 556.539062 653.566406 557.285156 651.851562 557.957031 C 651.628906 558.03125 648.941406 558.851562 647.972656 559.375 C 647.671875 559.523438 647.449219 559.671875 647.375 559.820312 C 647.226562 559.972656 647.226562 560.195312 647.226562 560.34375 C 647.226562 560.71875 647.597656 561.015625 647.972656 560.941406 C 648.121094 560.941406 648.269531 560.867188 648.417969 560.71875 C 648.417969 560.71875 648.417969 560.71875 648.496094 560.640625 C 648.570312 560.566406 648.644531 560.492188 648.644531 560.34375 C 648.644531 560.417969 648.644531 560.566406 648.570312 560.640625 C 649.539062 560.269531 652.222656 559.671875 652.449219 559.597656 C 653.417969 559.300781 654.386719 559 655.429688 558.628906 C 656.402344 558.253906 657.371094 557.882812 658.339844 557.507812 C 659.460938 557.0625 660.652344 556.539062 661.773438 556.019531 C 663.488281 555.195312 665.128906 554.375 666.769531 553.554688 C 667.140625 553.40625 667.292969 552.882812 667.140625 552.511719 C 666.917969 552.0625 666.472656 551.839844 666.097656 552.0625 Z M 666.097656 552.0625 " fill-opacity="1" fill-rule="nonzero"/><path fill="#ffffff" d="M 880.925781 541.84375 C 880.851562 516.855469 880.777344 416.753906 880.777344 413.695312 C 880.851562 409.070312 886.148438 379.679688 868.320312 380.574219 C 858.695312 381.023438 852.804688 395.417969 850.492188 401.683594 C 849.296875 404.96875 847.058594 410.859375 841.988281 411.234375 C 831.546875 412.054688 827.964844 405.9375 819.609375 402.730469 C 815.132812 401.089844 813.269531 405.5625 809.390625 404.96875 C 807.078125 404.59375 802.378906 398.777344 800.363281 400.042969 C 797.007812 402.132812 797.679688 410.710938 797.605469 413.546875 C 796.933594 427.867188 797.230469 536.398438 797.15625 544.15625 C 797.15625 548.558594 819.089844 554.75 837.585938 554.527344 C 856.382812 554.375 880.925781 550.496094 880.925781 541.84375 Z M 880.925781 541.84375 " fill-opacity="1" fill-rule="evenodd"/><path fill="#0a0a24" d="M 865.78125 395.867188 C 866.230469 394.972656 866.828125 394.152344 867.5 393.332031 C 867.648438 393.179688 868.617188 392.433594 868.992188 391.988281 C 869.289062 391.691406 869.363281 391.390625 869.363281 391.242188 C 869.363281 390.867188 869.066406 390.570312 868.765625 390.570312 C 868.542969 390.570312 868.46875 390.644531 868.320312 390.792969 C 868.246094 390.867188 868.171875 391.019531 868.171875 391.167969 C 868.171875 391.167969 868.171875 390.945312 868.171875 390.867188 C 867.722656 391.242188 866.753906 391.988281 866.605469 392.136719 C 865.78125 392.957031 865.1875 393.925781 864.589844 394.898438 C 864.066406 395.867188 863.546875 396.910156 863.097656 398.03125 C 862.5 399.445312 862.054688 400.9375 861.605469 402.582031 C 861.234375 404.070312 860.859375 405.636719 860.5625 407.128906 C 859.964844 410.113281 859.441406 413.171875 858.621094 416.082031 C 858.25 417.5 857.652344 418.839844 857.054688 420.257812 C 856.90625 420.632812 856.980469 421.078125 857.28125 421.304688 C 857.578125 421.527344 857.949219 421.453125 858.175781 421.078125 C 859.292969 418.992188 860.039062 416.753906 860.636719 414.515625 C 861.308594 411.902344 861.902344 409.144531 862.351562 406.535156 C 862.949219 403.996094 863.394531 401.386719 864.367188 398.851562 C 864.886719 397.804688 865.335938 396.835938 865.78125 395.867188 Z M 868.320312 390.945312 C 868.246094 390.945312 868.246094 390.945312 868.320312 390.945312 L 868.246094 391.019531 C 868.246094 390.867188 868.246094 390.792969 868.320312 390.945312 Z M 856.011719 404.742188 C 855.863281 405.191406 855.714844 405.714844 855.636719 406.160156 C 855.488281 406.457031 855.488281 406.832031 855.339844 407.128906 C 855.191406 407.429688 855.117188 407.800781 854.96875 408.101562 C 854.667969 408.847656 854.445312 409.59375 854.148438 410.261719 C 853.996094 410.636719 853.625 410.785156 853.25 410.636719 C 852.953125 410.488281 852.804688 410.039062 852.878906 409.59375 C 853.101562 408.847656 853.25 407.949219 853.476562 406.980469 C 853.625 406.609375 853.625 406.234375 853.773438 405.9375 C 853.847656 405.714844 853.921875 405.488281 853.996094 405.265625 C 854.445312 404.222656 854.96875 403.25 855.488281 402.503906 C 855.636719 402.207031 856.085938 402.132812 856.308594 402.429688 C 856.609375 402.65625 856.683594 403.101562 856.457031 403.402344 C 856.308594 403.773438 856.160156 404.222656 856.011719 404.742188 Z M 833.035156 427.34375 C 834.007812 428.316406 834.902344 429.285156 835.796875 430.253906 C 836.46875 430.925781 837.140625 431.523438 837.8125 432.117188 C 838.109375 432.417969 838.558594 432.714844 838.929688 433.015625 C 839.300781 433.3125 839.75 433.535156 840.125 433.761719 C 840.421875 433.984375 841.390625 434.207031 841.691406 434.207031 C 842.359375 434.207031 842.4375 433.683594 842.285156 433.386719 C 842.285156 433.3125 842.210938 433.089844 841.988281 432.9375 C 841.839844 432.789062 841.613281 432.789062 841.464844 432.863281 C 841.242188 432.714844 840.867188 432.492188 840.71875 432.417969 C 840.421875 432.195312 840.046875 431.894531 839.75 431.671875 C 839.453125 431.371094 839.152344 431.074219 838.855469 430.777344 C 838.40625 430.328125 837.960938 429.804688 837.4375 429.359375 C 836.691406 428.613281 836.019531 427.941406 835.273438 427.195312 C 834.453125 426.375 833.558594 425.703125 832.589844 425.03125 C 832.289062 424.808594 831.917969 424.882812 831.695312 425.257812 C 831.546875 425.628906 831.621094 426.078125 831.917969 426.300781 C 832.214844 426.523438 832.664062 426.972656 833.035156 427.34375 Z M 841.464844 432.863281 C 841.613281 432.789062 841.691406 432.714844 841.691406 432.863281 C 841.691406 432.863281 841.613281 432.863281 841.464844 432.863281 Z M 802.753906 452.707031 C 802.378906 452.707031 802.082031 452.332031 802.082031 451.886719 C 802.082031 448.753906 802.15625 445.546875 802.082031 442.414062 C 802.082031 439.578125 801.929688 436.667969 801.929688 433.835938 C 801.855469 431.894531 801.855469 430.03125 801.78125 428.089844 L 801.632812 419.886719 L 801.632812 417.5 C 801.632812 417.273438 801.632812 416.527344 801.707031 416.230469 C 801.707031 416.230469 801.707031 416.230469 801.707031 416.15625 C 801.707031 415.859375 801.78125 415.632812 802.007812 415.484375 C 802.007812 415.484375 802.828125 415.484375 802.828125 416.304688 C 802.828125 416.601562 802.828125 417.273438 802.828125 417.5 L 802.902344 419.8125 L 803.347656 428.015625 C 803.421875 430.03125 803.574219 431.96875 803.574219 433.984375 C 803.648438 435.996094 803.648438 437.9375 803.648438 439.949219 C 803.648438 443.980469 803.5 447.933594 803.347656 451.886719 C 803.5 452.40625 803.199219 452.707031 802.753906 452.707031 Z M 802.15625 464.863281 C 802.15625 464.492188 802.15625 464.121094 802.15625 463.820312 C 802.15625 463.296875 802.15625 462.777344 802.230469 462.179688 L 802.378906 459.941406 C 802.378906 459.644531 802.304688 459.121094 802.304688 458.898438 C 802.304688 458.675781 802.453125 458.449219 802.453125 458.375 C 802.601562 458.226562 802.828125 458.078125 803.125 458.226562 C 803.421875 458.375 803.574219 458.75 803.5 459.046875 C 803.5 459.046875 803.5 459.121094 803.421875 459.121094 C 803.421875 459.195312 803.5 459.269531 803.5 459.34375 C 803.574219 459.570312 803.574219 459.792969 803.574219 459.941406 L 803.722656 462.253906 C 803.722656 462.777344 803.722656 463.296875 803.796875 463.894531 C 803.796875 464.269531 803.722656 464.640625 803.796875 464.941406 C 803.722656 466.28125 803.648438 467.625 803.574219 468.96875 C 803.574219 469.414062 803.273438 469.714844 802.902344 469.640625 C 802.527344 469.640625 802.230469 469.265625 802.230469 468.820312 C 802.15625 467.550781 802.082031 466.207031 802.15625 464.863281 Z M 802.15625 464.863281 " fill-opacity="1" fill-rule="nonzero"/><path fill="#ffffff" d="M 707.871094 541.398438 C 705.707031 528.566406 694.890625 263.988281 699.21875 256.230469 C 699.21875 256.230469 708.839844 234.296875 765.007812 239.519531 C 790.144531 241.832031 789.550781 258.988281 788.058594 288.230469 C 786.492188 320.601562 789.773438 509.472656 789.027344 540.503906 C 788.878906 547.515625 771.871094 560.195312 751.878906 560.492188 C 730.621094 561.015625 708.839844 547.214844 707.871094 541.398438 Z M 707.871094 541.398438 " fill-opacity="1" fill-rule="evenodd"/><g clip-path="url(#6b6164df65)"><path fill="#c96028" d="M 741.960938 246.753906 C 740.691406 247.875 738.378906 243.101562 738.230469 242.652344 C 736.289062 237.582031 735.917969 231.761719 736.214844 226.390625 C 737.035156 205.132812 745.761719 184.171875 748.597656 163.136719 C 748.746094 162.167969 748.894531 165.078125 749.121094 166.046875 C 749.492188 167.6875 749.941406 169.328125 750.3125 170.894531 C 751.730469 176.488281 753.296875 182.082031 754.265625 187.902344 C 756.652344 202.371094 755.386719 217.8125 753.820312 232.359375 C 753.074219 238.253906 753.222656 246.085938 745.988281 247.054688 " fill-opacity="1" fill-rule="evenodd"/></g><path fill="#d97538" d="M 745.015625 240.863281 C 740.167969 240.488281 740.988281 229.375 741.0625 226.914062 C 741.511719 216.917969 749.046875 181.5625 749.046875 181.933594 C 748.226562 188.574219 754.714844 241.535156 745.015625 240.863281 Z M 745.015625 240.863281 " fill-opacity="1" fill-rule="evenodd"/><path fill="#c96028" d="M 841.390625 415.261719 C 842.511719 416.378906 844.300781 411.457031 844.449219 411.082031 C 845.941406 405.9375 846.089844 400.117188 845.71875 394.746094 C 844.300781 373.488281 836.167969 352.828125 833.113281 331.792969 C 832.960938 330.820312 832.886719 333.730469 832.738281 334.699219 C 832.515625 336.339844 832.140625 337.984375 831.84375 339.625 C 830.800781 345.292969 829.605469 350.886719 828.933594 356.707031 C 827.292969 371.25 828.859375 386.617188 830.722656 401.089844 C 831.546875 406.980469 831.695312 414.8125 837.886719 415.558594 " fill-opacity="1" fill-rule="evenodd"/><path fill="#d97538" d="M 838.558594 409.441406 C 842.660156 408.921875 841.691406 397.878906 841.464844 395.34375 C 840.71875 385.347656 833.1875 350.214844 833.261719 350.589844 C 834.15625 357.226562 830.277344 410.335938 838.558594 409.441406 Z M 838.558594 409.441406 " fill-opacity="1" fill-rule="evenodd"/><path fill="#ffffff" d="M 724.726562 259.4375 C 724.578125 259.734375 724.207031 259.882812 723.90625 259.734375 C 721.074219 258.316406 717.941406 258.242188 714.734375 258.167969 C 713.613281 258.167969 712.570312 258.09375 711.449219 258.019531 C 710.332031 257.945312 709.210938 257.871094 708.167969 257.570312 C 706.75 257.273438 705.484375 256.898438 704.140625 256.230469 C 703.246094 255.78125 702.722656 255.109375 702.351562 254.214844 C 701.976562 253.171875 701.902344 252.125 701.828125 251.378906 C 701.828125 251.230469 701.828125 251.15625 701.828125 251.082031 C 701.828125 251.082031 701.828125 251.082031 701.902344 251.082031 C 701.902344 251.082031 701.902344 251.082031 701.828125 251.007812 C 701.828125 250.933594 701.828125 250.933594 701.753906 250.933594 C 701.605469 250.785156 701.605469 250.484375 701.753906 250.261719 C 701.902344 250.039062 702.277344 249.964844 702.574219 250.1875 C 702.722656 250.335938 702.796875 250.484375 702.945312 250.785156 C 703.097656 251.304688 703.097656 252.5 703.617188 253.617188 C 703.84375 254.066406 704.214844 254.589844 704.8125 254.886719 C 706.003906 255.410156 707.199219 255.707031 708.46875 256.003906 C 709.734375 256.15625 711.078125 256.304688 712.421875 256.378906 C 715.105469 256.527344 717.941406 256.527344 720.550781 257.125 C 721.96875 257.421875 723.234375 257.871094 724.503906 258.542969 C 724.726562 258.691406 724.878906 259.136719 724.726562 259.4375 Z M 785.96875 253.46875 C 785.746094 253.246094 785.296875 253.320312 785.074219 253.542969 C 784.328125 254.363281 783.359375 254.960938 782.386719 255.410156 C 781.269531 255.929688 780.074219 256.453125 779.179688 257.050781 C 778.585938 257.496094 778.0625 257.871094 777.6875 258.390625 C 776.644531 259.808594 776.195312 261.898438 776.046875 264.210938 C 775.824219 268.761719 776.867188 274.429688 776.71875 277.5625 C 776.644531 278.679688 776.347656 283.753906 775.375 287.78125 C 774.929688 289.496094 774.480469 291.0625 773.734375 292.035156 C 773.4375 292.40625 773.140625 292.703125 772.765625 292.554688 C 772.46875 292.480469 772.242188 292.257812 771.945312 292.035156 C 771.574219 291.585938 771.273438 290.914062 771.125 290.167969 C 770.527344 288.15625 770.304688 285.617188 770.15625 284.574219 C 769.410156 278.53125 769.632812 273.757812 768.8125 269.058594 C 768.289062 265.851562 767.246094 262.644531 765.230469 259.136719 C 765.082031 258.914062 764.785156 258.765625 764.410156 258.988281 C 764.1875 259.136719 764.039062 259.4375 764.261719 259.734375 C 766.203125 263.089844 767.097656 266.148438 767.542969 269.28125 C 768.289062 273.980469 767.992188 278.679688 768.664062 284.722656 C 768.8125 286.066406 769.035156 289.347656 770.007812 291.585938 C 770.527344 292.929688 771.421875 293.898438 772.46875 294.121094 C 773.289062 294.269531 773.960938 294.046875 774.628906 293.449219 C 775.375 292.703125 776.046875 291.4375 776.496094 289.871094 C 777.839844 285.617188 778.210938 278.980469 778.285156 277.636719 C 778.359375 274.503906 777.316406 268.910156 777.464844 264.285156 C 777.539062 262.269531 777.914062 260.40625 778.734375 259.136719 C 779.179688 258.542969 779.851562 258.019531 780.746094 257.644531 C 781.941406 256.976562 783.433594 256.378906 784.550781 255.632812 C 785.074219 255.257812 785.597656 254.8125 785.96875 254.363281 C 786.265625 254.066406 786.265625 253.617188 785.96875 253.46875 Z M 766.949219 248.398438 C 766.949219 247.726562 766.648438 247.128906 766.128906 246.605469 C 765.304688 245.785156 763.738281 245.1875 762.472656 245.1875 C 761.351562 245.113281 760.308594 245.414062 759.785156 246.085938 C 759.636719 246.308594 759.636719 246.679688 759.859375 246.90625 C 760.085938 247.054688 760.457031 247.054688 760.683594 246.832031 C 760.832031 246.605469 761.203125 246.53125 761.578125 246.53125 C 762.097656 246.457031 762.769531 246.605469 763.367188 246.832031 C 763.964844 246.980469 764.484375 247.351562 764.933594 247.726562 C 765.15625 247.949219 765.382812 248.171875 765.382812 248.472656 C 765.457031 248.769531 765.230469 249.066406 764.933594 249.367188 C 764.484375 249.8125 763.816406 250.261719 762.84375 250.710938 C 762.398438 250.859375 762.023438 251.082031 761.578125 251.15625 C 761.128906 251.304688 760.757812 251.378906 760.234375 251.453125 C 759.859375 251.53125 759.636719 251.828125 759.710938 252.199219 C 759.785156 252.574219 760.085938 252.796875 760.457031 252.722656 C 760.90625 252.648438 761.503906 252.574219 761.949219 252.5 C 762.398438 252.351562 762.917969 252.277344 763.367188 252.050781 C 764.335938 251.679688 765.082031 251.230469 765.605469 250.933594 C 766.574219 249.886719 766.949219 249.144531 766.949219 248.398438 Z M 754.414062 270.847656 C 754.042969 270.773438 753.746094 271.074219 753.746094 271.371094 L 753.296875 275.699219 C 753.148438 276.59375 753.148438 277.5625 752.925781 278.53125 C 752.773438 279.054688 752.625 279.652344 752.328125 280.097656 C 752.179688 280.324219 752.105469 280.546875 751.878906 280.621094 C 751.804688 280.621094 751.804688 280.695312 751.730469 280.695312 L 751.65625 280.621094 C 751.582031 280.472656 751.507812 280.472656 751.433594 280.246094 C 751.132812 279.652344 750.910156 278.832031 750.6875 277.785156 C 749.792969 273.3125 749.492188 266 749.269531 264.882812 C 749.121094 264.433594 748.894531 263.464844 748.449219 262.71875 C 748.148438 262.121094 747.703125 261.601562 747.328125 261.300781 C 746.660156 260.855469 745.914062 260.855469 745.015625 261.523438 C 744.421875 261.972656 743.898438 262.941406 743.601562 263.988281 C 743.078125 265.851562 743.003906 268.386719 742.78125 269.582031 C 742.554688 271.746094 742.332031 273.90625 742.109375 276.070312 C 741.660156 281.144531 741.511719 286.214844 741.0625 291.289062 C 740.988281 292.183594 740.914062 295.242188 740.242188 297.480469 C 740.09375 298.148438 739.796875 298.746094 739.421875 299.195312 C 739.125 299.566406 738.824219 299.792969 738.304688 299.714844 C 737.484375 299.566406 736.8125 298.894531 736.289062 297.925781 C 735.617188 296.734375 735.171875 295.09375 734.722656 293.300781 C 733.304688 286.289062 733.679688 276.21875 733.230469 273.386719 C 732.859375 271.148438 731.515625 268.613281 730.769531 266.375 C 730.621094 265.777344 730.472656 265.253906 730.398438 264.65625 C 730.398438 264.359375 730.097656 264.136719 729.800781 264.210938 C 729.503906 264.210938 729.277344 264.507812 729.351562 264.808594 C 729.425781 265.402344 729.503906 266.074219 729.726562 266.746094 C 730.398438 268.984375 731.738281 271.371094 732.039062 273.609375 C 732.484375 276.519531 731.964844 286.664062 733.304688 293.675781 C 733.753906 296.136719 734.425781 298.226562 735.46875 299.566406 C 736.140625 300.460938 736.960938 301.058594 738.003906 301.28125 C 739.421875 301.582031 740.542969 300.6875 741.289062 299.121094 C 742.40625 296.734375 742.554688 292.628906 742.628906 291.511719 C 743.078125 286.4375 743.226562 281.367188 743.675781 276.292969 C 743.824219 274.132812 744.046875 271.96875 744.269531 269.878906 C 744.421875 268.835938 744.421875 266.894531 744.792969 265.253906 C 744.941406 264.210938 745.242188 263.316406 745.835938 262.867188 C 745.988281 262.71875 746.0625 262.71875 746.210938 262.71875 C 746.433594 262.71875 746.660156 263.015625 746.808594 263.242188 C 747.253906 263.910156 747.554688 264.882812 747.628906 265.253906 C 747.851562 266.523438 748.300781 276.070312 749.640625 280.023438 C 749.867188 280.769531 750.164062 281.292969 750.460938 281.664062 C 750.835938 282.039062 751.207031 282.1875 751.582031 282.1875 C 752.027344 282.1875 752.625 281.8125 753.222656 280.917969 C 753.59375 280.324219 753.820312 279.578125 753.96875 278.90625 C 754.117188 277.933594 754.191406 276.890625 754.265625 275.921875 L 754.714844 271.59375 C 755.011719 271.222656 754.789062 270.847656 754.414062 270.847656 Z M 730.917969 253.617188 C 730.472656 253.542969 729.949219 253.46875 729.503906 253.320312 C 728.757812 253.171875 728.085938 252.871094 727.414062 252.5 C 726.964844 252.351562 726.445312 251.828125 725.996094 251.304688 C 725.546875 250.785156 725.101562 250.1875 724.726562 249.8125 C 724.503906 249.8125 724.28125 249.664062 724.28125 249.441406 C 724.132812 249.066406 724.132812 248.84375 724.207031 248.695312 C 724.28125 248.546875 724.652344 248.171875 725.25 248.546875 C 725.546875 248.769531 726.292969 249.589844 726.964844 250.261719 C 727.339844 250.632812 727.710938 250.933594 728.011719 251.082031 C 728.679688 251.378906 729.351562 251.53125 730.023438 251.753906 C 730.769531 251.902344 731.441406 252.125 732.113281 252.199219 C 733.53125 252.425781 735.023438 252.574219 736.4375 252.574219 C 736.8125 252.574219 737.109375 252.796875 737.109375 253.171875 C 737.109375 253.542969 736.886719 253.84375 736.515625 253.84375 C 734.574219 253.917969 732.710938 253.917969 730.917969 253.617188 Z M 725.101562 248.917969 C 725.101562 248.917969 725.101562 248.992188 725.101562 249.066406 C 725.101562 249.066406 725.101562 249.066406 725.101562 249.144531 C 725.175781 248.992188 725.175781 248.917969 725.101562 248.917969 Z M 701.753906 251.082031 C 701.753906 251.082031 701.753906 251.15625 701.753906 251.082031 Z M 743.375 248.84375 C 742.929688 247.203125 742.78125 245.265625 742.929688 243.101562 C 743.003906 240.566406 743.375 237.804688 743.675781 235.269531 C 743.898438 233.402344 744.195312 231.613281 744.347656 230.121094 L 744.792969 224.601562 C 744.867188 224.230469 745.015625 222.886719 745.09375 222.214844 C 745.09375 222.214844 745.09375 222.214844 745.167969 222.289062 L 745.242188 222.363281 C 745.167969 222.289062 745.167969 222.214844 745.167969 222.214844 L 745.167969 222.140625 C 745.167969 221.992188 745.167969 221.917969 745.242188 221.765625 C 745.390625 221.617188 745.539062 221.542969 745.6875 221.542969 C 745.835938 221.46875 746.136719 221.542969 746.285156 221.917969 C 746.285156 221.992188 746.359375 222.066406 746.285156 222.363281 C 746.285156 222.960938 746.136719 224.453125 746.136719 224.75 L 745.914062 230.269531 C 745.835938 231.761719 745.6875 233.554688 745.390625 235.492188 C 745.09375 237.953125 744.644531 240.640625 744.496094 243.175781 C 744.347656 245.1875 744.347656 247.054688 744.71875 248.546875 C 744.792969 248.917969 744.570312 249.21875 744.269531 249.367188 C 743.75 249.515625 743.527344 249.21875 743.375 248.84375 Z M 745.539062 222.585938 C 745.6875 222.585938 745.835938 222.585938 745.988281 222.4375 C 745.914062 222.511719 745.761719 222.585938 745.539062 222.585938 Z M 745.09375 222.214844 C 744.941406 222.140625 745.015625 222.214844 745.09375 222.363281 Z M 745.09375 222.214844 " fill-opacity="1" fill-rule="nonzero"/><path fill="#0a0a24" d="M 737.109375 275.847656 C 737.484375 275.847656 737.707031 275.546875 737.707031 275.175781 C 737.707031 273.3125 737.707031 271.445312 737.558594 269.582031 C 737.484375 269.132812 737.410156 268.535156 737.335938 268.089844 C 737.183594 267.34375 736.960938 266.597656 736.664062 265.851562 C 736.515625 265.402344 736.214844 264.808594 735.992188 264.359375 C 735.769531 263.910156 735.46875 263.390625 735.171875 262.941406 C 735.023438 262.792969 734.648438 262.496094 734.351562 262.195312 C 734.351562 262.046875 734.203125 261.824219 734.050781 261.75 C 733.828125 261.601562 733.605469 261.601562 733.605469 261.601562 C 733.378906 261.601562 732.859375 261.972656 733.230469 262.496094 C 733.378906 262.644531 733.902344 263.242188 734.050781 263.539062 C 734.277344 263.988281 734.5 264.359375 734.722656 264.882812 C 734.871094 265.328125 735.097656 265.777344 735.171875 266.300781 C 735.320312 266.96875 735.542969 267.714844 735.617188 268.3125 C 735.691406 268.761719 735.769531 269.207031 735.84375 269.730469 C 736.140625 271.519531 736.289062 273.3125 736.363281 275.175781 C 736.515625 275.546875 736.738281 275.847656 737.109375 275.847656 Z M 734.203125 262.195312 C 734.125 262.046875 734.050781 262.046875 734.125 262.046875 C 734.277344 261.898438 734.277344 262.046875 734.203125 262.195312 Z M 736.4375 286.511719 C 736.4375 286.4375 736.4375 286.4375 736.4375 286.511719 C 736.4375 286.4375 736.4375 286.511719 736.4375 286.511719 Z M 737.929688 288.527344 C 737.929688 288.304688 737.855469 288.082031 737.78125 287.78125 C 737.632812 287.109375 737.558594 286.664062 737.484375 286.363281 C 737.410156 286.214844 737.410156 286.214844 737.410156 286.140625 C 737.257812 285.84375 737.035156 285.769531 736.960938 285.769531 C 736.664062 285.691406 736.363281 285.917969 736.363281 286.214844 C 736.363281 286.363281 736.363281 286.363281 736.4375 286.511719 C 736.4375 286.511719 736.4375 286.511719 736.4375 286.4375 C 736.4375 286.589844 736.4375 286.886719 736.363281 287.335938 C 736.363281 287.632812 736.289062 288.003906 736.289062 288.378906 C 736.289062 288.601562 736.289062 288.824219 736.289062 289.050781 C 736.289062 289.421875 736.363281 289.722656 736.4375 290.09375 C 736.589844 290.914062 736.589844 291.511719 736.664062 291.585938 C 736.738281 291.957031 737.035156 292.183594 737.335938 292.183594 C 737.707031 292.109375 737.929688 291.808594 737.855469 291.4375 C 737.855469 291.289062 737.929688 290.316406 737.929688 289.273438 C 738.003906 289.050781 737.929688 288.75 737.929688 288.527344 Z M 736.4375 286.589844 C 736.515625 286.738281 736.589844 286.8125 736.738281 286.886719 C 736.664062 286.8125 736.515625 286.738281 736.4375 286.589844 Z M 752.328125 263.015625 C 752.328125 263.316406 752.253906 263.613281 752.328125 263.835938 C 752.402344 264.210938 752.179688 264.507812 751.878906 264.65625 C 751.507812 264.808594 751.207031 264.507812 751.058594 264.210938 C 750.910156 263.988281 750.910156 263.761719 750.761719 263.390625 C 750.6875 263.242188 750.6875 263.089844 750.613281 262.941406 C 750.613281 262.792969 750.613281 262.570312 750.613281 262.34375 C 750.613281 262.195312 750.6875 261.972656 750.613281 261.898438 C 750.460938 261.675781 750.539062 261.300781 750.761719 261.078125 C 750.984375 260.929688 751.359375 261.003906 751.582031 261.226562 C 751.804688 261.523438 752.027344 261.898438 752.179688 262.34375 C 752.179688 262.421875 752.253906 262.496094 752.253906 262.570312 C 752.328125 262.71875 752.328125 262.867188 752.328125 263.015625 Z M 771.347656 268.6875 C 770.976562 268.6875 770.675781 268.460938 770.675781 268.089844 C 770.527344 266.96875 770.230469 266 769.929688 264.957031 C 769.78125 264.507812 769.558594 263.988281 769.410156 263.464844 C 769.261719 263.015625 768.960938 262.496094 768.738281 262.046875 C 768.664062 261.972656 768.140625 260.855469 767.84375 260.480469 C 767.695312 260.40625 767.695312 260.332031 767.542969 260.257812 C 767.394531 260.03125 767.394531 259.660156 767.695312 259.4375 C 767.84375 259.289062 768.140625 259.289062 768.589844 259.585938 C 769.035156 259.957031 769.929688 261.152344 770.007812 261.300781 C 770.304688 261.75 770.601562 262.34375 770.902344 262.792969 C 771.125 263.316406 771.347656 263.910156 771.496094 264.507812 C 771.796875 265.628906 771.945312 266.820312 771.945312 268.015625 C 771.945312 268.3125 771.722656 268.6875 771.347656 268.6875 Z M 772.691406 281.441406 C 772.691406 281.292969 772.691406 281.144531 772.691406 280.992188 C 772.691406 280.84375 772.617188 280.695312 772.542969 280.546875 C 772.46875 280.324219 772.394531 280.097656 772.394531 279.949219 L 772.316406 279.875 L 772.316406 279.949219 C 772.394531 279.800781 772.394531 279.652344 772.316406 279.5 C 772.167969 279.203125 771.871094 279.054688 771.574219 279.203125 C 771.421875 279.203125 771.347656 279.351562 771.199219 279.652344 C 771.125 279.800781 771.050781 280.097656 771.050781 280.546875 C 771.050781 280.695312 771.050781 280.769531 771.050781 280.917969 C 771.050781 281.066406 771.050781 281.144531 771.125 281.292969 C 771.199219 281.441406 771.273438 281.664062 771.273438 281.8125 C 771.421875 282.039062 771.421875 282.261719 771.421875 282.261719 C 771.496094 282.636719 771.796875 282.859375 772.167969 282.785156 C 772.542969 282.710938 772.765625 282.410156 772.691406 282.039062 C 772.691406 282.113281 772.691406 281.8125 772.691406 281.441406 Z M 772.242188 280.023438 C 772.242188 280.097656 772.167969 280.171875 772.09375 280.171875 C 772.09375 280.171875 772.167969 280.097656 772.242188 280.023438 Z M 703.246094 260.109375 C 703.023438 260.257812 702.5 260.929688 702.425781 261.078125 C 702.277344 261.375 702.199219 261.75 702.125 262.121094 C 701.976562 262.570312 701.902344 263.167969 701.828125 263.613281 C 701.605469 264.808594 701.457031 266 701.378906 267.195312 C 701.304688 268.386719 701.230469 269.582031 701.230469 270.773438 C 701.15625 273.011719 701.15625 275.25 701.15625 277.488281 C 701.15625 279.5 701.304688 281.664062 701.304688 283.679688 C 701.453125 286.738281 701.53125 289.871094 701.679688 292.929688 C 701.679688 293.300781 701.976562 293.523438 702.351562 293.523438 C 702.722656 293.523438 702.945312 293.226562 702.945312 292.855469 C 702.945312 291.4375 702.945312 289.871094 702.945312 288.378906 C 702.871094 284.796875 702.796875 281.292969 702.796875 277.710938 C 702.722656 275.324219 702.722656 273.011719 702.722656 270.625 C 702.722656 269.207031 702.722656 267.789062 702.871094 266.375 C 702.945312 265.402344 703.023438 264.507812 703.171875 263.539062 C 703.246094 263.089844 703.320312 262.570312 703.394531 262.121094 C 703.46875 261.824219 703.542969 261.523438 703.617188 261.226562 C 703.46875 261.152344 703.691406 260.929688 703.84375 260.777344 C 703.992188 260.628906 703.992188 260.628906 704.066406 260.628906 C 704.214844 260.554688 704.214844 260.480469 704.289062 260.332031 C 704.289062 260.257812 703.917969 259.511719 703.246094 260.109375 Z M 703.171875 260.40625 C 703.171875 260.554688 703.246094 260.777344 703.320312 260.855469 C 703.246094 260.777344 703.097656 260.703125 703.171875 260.40625 Z M 703.765625 261.003906 C 703.84375 261.003906 703.917969 260.929688 703.992188 260.855469 C 704.140625 261.078125 703.992188 261.078125 703.765625 261.003906 Z M 732.261719 249.441406 C 731.21875 249.066406 730.023438 248.769531 728.980469 248.320312 C 728.679688 248.171875 728.308594 248.097656 728.011719 247.875 C 727.710938 247.726562 727.414062 247.578125 727.191406 247.425781 C 727.039062 247.351562 726.964844 247.277344 726.816406 247.128906 C 726.742188 247.054688 726.667969 246.980469 726.667969 246.90625 C 726.667969 246.832031 726.59375 246.832031 726.59375 246.753906 C 726.742188 246.679688 726.890625 246.605469 726.890625 246.605469 C 736.4375 244.367188 736.515625 243.546875 731.515625 244.441406 C 736.066406 242.132812 735.542969 241.757812 726.59375 245.5625 L 726.519531 245.5625 C 726.367188 245.636719 725.847656 245.710938 725.625 246.007812 C 725.472656 246.160156 725.398438 246.308594 725.324219 246.457031 C 725.175781 246.832031 725.25 247.203125 725.472656 247.578125 C 725.625 248.023438 725.921875 248.398438 726.21875 248.621094 C 726.519531 248.917969 726.890625 249.21875 727.339844 249.441406 C 727.710938 249.589844 728.160156 249.8125 728.53125 249.886719 C 729.128906 250.039062 729.726562 250.1875 730.246094 250.335938 C 730.84375 250.484375 731.367188 250.484375 731.964844 250.632812 C 732.335938 250.785156 732.636719 250.484375 732.785156 250.1875 C 732.785156 249.886719 732.558594 249.515625 732.261719 249.441406 Z M 726.445312 246.980469 C 726.367188 246.90625 726.445312 246.832031 726.59375 246.832031 C 726.59375 246.90625 726.519531 247.054688 726.445312 246.980469 Z M 758.519531 244.292969 C 758.59375 244.519531 758.667969 244.742188 758.667969 245.113281 C 758.667969 245.5625 758.519531 246.007812 758.21875 246.53125 C 758.070312 246.832031 757.773438 246.980469 757.398438 246.90625 C 757.101562 246.753906 756.953125 246.457031 757.027344 246.085938 C 757.175781 245.636719 757.101562 245.339844 757.027344 245.039062 C 757.027344 244.890625 756.953125 244.890625 756.953125 244.742188 C 756.878906 244.59375 756.878906 244.519531 756.804688 244.441406 C 756.652344 244.21875 756.503906 243.921875 756.28125 243.621094 C 756.058594 243.472656 756.058594 243.101562 756.207031 242.800781 C 756.355469 242.578125 756.726562 242.578125 757.027344 242.726562 C 757.472656 243.027344 757.847656 243.25 758.144531 243.546875 C 758.292969 243.847656 758.445312 244.144531 758.519531 244.292969 Z M 768.363281 246.234375 C 768.140625 246.085938 768.140625 245.710938 768.363281 245.414062 C 768.589844 245.039062 768.960938 245.039062 769.484375 245.1875 C 769.632812 245.265625 769.929688 245.339844 770.15625 245.488281 C 770.304688 245.5625 770.453125 245.636719 770.601562 245.785156 C 770.75 245.933594 770.902344 246.007812 771.050781 246.160156 C 771.199219 246.308594 771.347656 246.53125 771.496094 246.605469 C 771.796875 247.054688 771.945312 247.425781 772.019531 247.578125 C 772.167969 247.875 771.945312 248.320312 771.648438 248.398438 C 771.347656 248.546875 770.976562 248.398438 770.828125 248.023438 C 770.902344 247.949219 770.675781 247.875 770.601562 247.800781 C 770.453125 247.652344 770.15625 247.351562 769.855469 247.054688 C 769.78125 246.980469 769.707031 246.90625 769.632812 246.832031 C 769.484375 246.679688 769.410156 246.605469 769.335938 246.457031 C 769.261719 246.382812 769.183594 246.308594 769.183594 246.308594 L 769.109375 246.234375 C 769.109375 246.234375 769.109375 246.234375 769.183594 246.234375 C 769.261719 246.234375 769.261719 246.160156 769.335938 246.085938 C 768.886719 246.382812 768.515625 246.382812 768.363281 246.234375 Z M 770.75 248.097656 C 770.75 248.171875 770.75 248.097656 770.75 248.097656 Z M 712.570312 417.871094 C 711.898438 411.753906 711.601562 403.550781 711.449219 395.121094 C 711.449219 393.332031 711.375 391.539062 711.449219 389.601562 C 711.449219 386.839844 711.523438 384.082031 711.523438 381.394531 C 711.675781 373.710938 711.824219 366.476562 711.75 360.882812 C 711.75 360.585938 711.972656 360.359375 712.269531 360.359375 C 712.570312 360.359375 712.792969 360.585938 712.792969 360.882812 C 712.941406 364.3125 712.941406 368.417969 712.941406 372.816406 C 712.941406 376.621094 712.941406 380.648438 713.015625 384.753906 C 713.015625 387.4375 713.015625 390.046875 713.015625 392.734375 C 713.015625 395.417969 713.015625 398.105469 713.089844 400.714844 C 713.167969 407.054688 713.316406 413.023438 713.835938 417.722656 C 713.910156 418.09375 713.613281 418.394531 713.316406 418.46875 C 712.941406 418.46875 712.570312 418.246094 712.570312 417.871094 Z M 714.359375 433.3125 C 714.433594 433.609375 714.433594 433.984375 714.433594 434.28125 C 714.433594 434.730469 714.433594 435.25 714.433594 435.699219 C 714.433594 436.296875 714.359375 436.816406 714.359375 437.117188 C 714.433594 437.488281 714.136719 437.789062 713.835938 437.789062 C 713.464844 437.863281 713.167969 437.5625 713.167969 437.265625 C 713.089844 436.894531 713.015625 436.148438 713.015625 435.25 C 713.015625 434.804688 712.941406 434.429688 712.941406 433.984375 C 712.941406 433.609375 712.941406 433.238281 712.867188 432.9375 C 712.867188 432.566406 712.867188 432.195312 712.792969 431.894531 C 712.71875 431.671875 712.71875 431.449219 712.644531 431.222656 C 712.644531 431.148438 712.644531 431.074219 712.570312 431.074219 C 712.34375 430.925781 712.269531 430.625 712.421875 430.253906 C 712.570312 430.03125 712.867188 429.957031 713.242188 430.105469 C 713.539062 430.253906 713.761719 430.550781 713.988281 431 C 714.136719 431.371094 714.285156 431.820312 714.359375 432.269531 C 714.285156 432.640625 714.359375 432.9375 714.359375 433.3125 Z M 714.359375 433.3125 " fill-opacity="1" fill-rule="evenodd"/><path fill="#ffffff" d="M 837.511719 394.824219 C 837.511719 394.597656 837.511719 394.523438 837.511719 394.449219 C 837.511719 394.300781 837.585938 394.226562 837.585938 394.226562 C 837.734375 393.925781 837.8125 393.851562 837.960938 393.851562 C 838.109375 393.777344 838.257812 393.777344 838.480469 394 C 838.480469 394.078125 838.558594 394.152344 838.632812 394.300781 C 838.632812 394.375 838.632812 394.523438 838.632812 394.597656 C 838.632812 394.597656 838.632812 394.597656 838.632812 394.671875 C 839.078125 394.671875 838.929688 394.746094 838.632812 394.824219 L 838.632812 394.746094 C 838.632812 394.824219 838.558594 394.824219 838.558594 394.898438 L 838.707031 394.898438 C 838.707031 395.417969 838.855469 396.464844 838.855469 397.957031 C 838.929688 400.34375 839.078125 403.625 839.300781 407.28125 C 839.453125 409.292969 839.527344 411.382812 839.527344 413.46875 C 839.675781 415.632812 839.675781 417.722656 839.75 419.660156 C 839.824219 424.0625 839.898438 427.570312 839.898438 428.984375 C 839.898438 429.359375 839.675781 429.730469 839.300781 429.730469 C 839.003906 429.730469 838.632812 429.433594 838.632812 428.984375 C 838.558594 427.570312 838.40625 423.988281 838.183594 419.660156 C 838.035156 417.722656 837.960938 415.632812 837.960938 413.46875 C 837.886719 411.382812 837.8125 409.292969 837.734375 407.28125 C 837.585938 403.625 837.585938 400.269531 837.585938 397.957031 C 837.511719 396.464844 837.511719 395.34375 837.511719 394.824219 Z M 874.882812 439.128906 C 874.585938 435.402344 874.210938 431.746094 874.0625 428.015625 C 873.914062 425.554688 873.914062 423.09375 873.988281 420.632812 C 874.0625 420.332031 873.988281 419.066406 874.0625 417.871094 C 874.0625 417.199219 874.0625 416.527344 874.210938 416.082031 C 874.285156 416.007812 874.285156 415.859375 874.285156 415.78125 L 874.210938 415.78125 C 874.210938 415.78125 874.210938 415.78125 874.285156 415.78125 C 874.285156 415.707031 874.359375 415.707031 874.359375 415.707031 C 874.511719 415.484375 874.660156 415.1875 874.511719 414.886719 C 874.359375 414.515625 874.0625 414.367188 873.765625 414.515625 C 873.617188 414.589844 873.539062 414.738281 873.390625 414.886719 C 873.242188 415.113281 873.09375 415.484375 873.019531 415.933594 C 872.71875 417.425781 872.792969 419.960938 872.792969 420.40625 C 872.644531 422.945312 872.71875 425.40625 872.792969 427.941406 C 872.945312 431.671875 873.242188 435.402344 873.539062 439.128906 C 873.691406 441.367188 873.914062 443.828125 873.839844 446.21875 C 873.839844 447.707031 873.617188 449.199219 873.242188 450.617188 C 873.09375 451.140625 872.945312 451.511719 872.792969 451.738281 C 872.644531 451.886719 872.644531 451.960938 872.570312 451.960938 C 872.421875 451.960938 872.347656 451.886719 872.199219 451.8125 C 871.152344 450.992188 870.257812 448.828125 870.035156 447.558594 C 869.585938 445.023438 869.363281 442.488281 869.214844 439.875 C 868.992188 433.761719 869.289062 427.492188 868.917969 421.527344 C 868.765625 419.738281 868.765625 417.199219 868.394531 414.886719 C 868.09375 413.171875 867.574219 411.605469 866.753906 410.5625 C 866.605469 410.414062 866.453125 410.335938 866.230469 410.335938 C 866.15625 410.1875 866.007812 410.039062 865.933594 409.964844 C 865.78125 409.742188 865.632812 409.742188 865.484375 409.59375 C 866.082031 407.875 866.605469 406.085938 867.125 404.296875 C 867.199219 404.148438 867.574219 402.582031 867.796875 402.058594 C 867.945312 401.984375 868.019531 401.835938 868.019531 401.609375 C 868.019531 401.238281 867.796875 400.9375 867.5 400.863281 C 867.347656 400.863281 867.050781 400.9375 866.828125 401.386719 C 866.527344 401.984375 866.082031 403.699219 866.007812 403.847656 C 865.484375 405.636719 864.886719 407.429688 864.292969 409.292969 C 863.84375 410.488281 863.472656 411.605469 863.023438 412.875 C 861.160156 417.945312 859.515625 426.152344 856.609375 430.851562 C 855.191406 433.164062 853.476562 434.503906 851.164062 434.132812 C 849.523438 433.835938 848.476562 435.175781 847.878906 437.789062 C 846.464844 444.726562 848.402344 461.582031 847.957031 471.355469 C 847.804688 473.59375 847.582031 475.457031 847.058594 476.652344 C 846.835938 477.171875 846.613281 477.621094 846.164062 477.621094 C 845.492188 477.695312 844.898438 477.097656 844.375 476.054688 C 843.40625 474.1875 842.660156 471.355469 842.0625 467.847656 C 840.421875 458.972656 839.675781 446.367188 838.855469 438.160156 C 838.480469 434.28125 837.066406 431.820312 835.199219 430.03125 C 833.335938 428.316406 831.097656 427.34375 828.933594 426.597656 C 827.367188 426.078125 825.949219 425.554688 824.90625 424.882812 C 824.011719 424.210938 823.117188 423.613281 822.070312 423.765625 C 821.027344 423.988281 820.058594 426.300781 820.058594 426.300781 C 818.640625 429.882812 818.417969 438.234375 818.34375 452.332031 C 818.34375 462.03125 818.265625 476.652344 816.476562 477.84375 C 815.65625 478.144531 815.210938 477.917969 814.984375 477.695312 C 812.972656 475.90625 812.820312 467.996094 814.6875 460.835938 C 816.625 453.230469 814.6875 424.734375 814.3125 423.765625 C 814.015625 422.71875 811.253906 421.453125 809.6875 419.140625 C 807.453125 415.933594 805.4375 411.902344 804.617188 409.742188 C 804.46875 409.292969 804.09375 409.144531 803.796875 409.292969 C 803.5 409.441406 803.273438 409.890625 803.5 410.5625 C 804.320312 412.800781 806.480469 416.976562 808.71875 420.332031 C 809.914062 422.125 811.105469 423.613281 812.300781 424.585938 C 812.523438 426.824219 814.613281 452.257812 812.523438 460.316406 C 811.03125 466.058594 810.0625 476.277344 813.492188 479.410156 C 814.015625 479.859375 814.761719 480.304688 815.804688 480.304688 C 816.253906 480.304688 816.777344 480.230469 817.296875 480.007812 C 820.207031 478.886719 820.578125 470.757812 820.578125 452.40625 C 820.578125 442.636719 821.847656 426.226562 822.742188 426.078125 C 823.636719 425.925781 823.710938 426.449219 824.160156 426.75 C 825.277344 427.570312 826.84375 428.089844 828.488281 428.6875 C 830.425781 429.359375 832.515625 430.253906 834.230469 431.894531 C 835.722656 433.386719 836.992188 435.550781 837.289062 438.832031 C 838.183594 448.527344 839.078125 464.117188 841.390625 472.996094 C 842.0625 475.605469 842.808594 477.546875 843.777344 478.738281 C 844.597656 479.785156 845.492188 480.15625 846.464844 480.082031 C 847.210938 480.007812 847.878906 479.484375 848.328125 478.664062 C 848.777344 477.992188 849.074219 477.023438 849.296875 475.753906 C 849.820312 472.546875 849.820312 467.625 849.597656 462.179688 C 849.296875 455.242188 848.777344 447.484375 849.074219 442.1875 C 849.148438 440.25 849.371094 438.683594 849.746094 437.5625 C 850.042969 436.742188 850.417969 436.148438 851.015625 436.222656 C 853.921875 436.667969 856.085938 435.027344 857.800781 432.195312 C 860.785156 427.34375 862.351562 419.066406 864.292969 413.769531 C 864.515625 413.097656 864.738281 412.351562 864.960938 411.679688 C 865.039062 411.753906 865.113281 411.753906 865.1875 411.828125 C 865.261719 411.828125 865.261719 411.828125 865.335938 411.828125 C 865.410156 411.828125 865.410156 411.753906 865.484375 411.753906 C 865.558594 411.753906 865.484375 411.679688 865.558594 411.679688 C 865.632812 411.605469 865.558594 411.53125 865.632812 411.53125 C 865.632812 411.53125 865.707031 411.53125 865.78125 411.53125 C 865.78125 411.679688 865.859375 411.828125 865.933594 411.902344 C 866.605469 412.800781 866.976562 414.066406 867.199219 415.410156 C 867.574219 417.648438 867.574219 420.109375 867.648438 421.824219 C 867.945312 427.792969 867.5 434.058594 867.796875 440.175781 C 867.945312 442.859375 868.171875 445.546875 868.617188 448.15625 C 868.917969 449.722656 870.257812 452.558594 871.527344 453.601562 C 872.199219 454.125 872.871094 454.199219 873.617188 453.824219 C 874.136719 453.527344 874.660156 452.78125 875.105469 451.363281 C 875.480469 449.796875 875.703125 448.082031 875.777344 446.367188 C 875.332031 443.980469 875.105469 441.441406 874.882812 439.128906 Z M 874.882812 439.128906 " fill-opacity="1" fill-rule="nonzero"/></svg>