<svg xmlns="http://www.w3.org/2000/svg" xmlns:xlink="http://www.w3.org/1999/xlink" zoomAndPan="magnify" viewBox="522 157 374 457" preserveAspectRatio="xMidYMid meet" version="1.0"><defs><clipPath id="b6f8dc8358"><path d="M 674 169.066406 L 693 169.066406 L 693 194 L 674 194 Z M 674 169.066406 " clip-rule="nonzero"/></clipPath><clipPath id="ee2129c064"><path d="M 862 312 L 884.433594 312 L 884.433594 333 L 862 333 Z M 862 312 " clip-rule="nonzero"/></clipPath><clipPath id="b6c46ef03a"><path d="M 534.933594 308 L 557 308 L 557 329 L 534.933594 329 Z M 534.933594 308 " clip-rule="nonzero"/></clipPath><clipPath id="576915ef63"><path d="M 547 371 L 868 371 L 868 601.066406 L 547 601.066406 Z M 547 371 " clip-rule="nonzero"/></clipPath></defs><path fill="#0A0A24" d="M 735.617188 320.644531 C 721.597656 325.242188 713.027344 335.554688 720.371094 344.730469 C 721.414062 341.027344 724.398438 336.027344 728.085938 333.976562 C 724.546875 337.933594 724.191406 341.683594 722.625 344.9375 C 736.394531 343.292969 735.058594 328.082031 735.617188 320.644531 Z M 735.617188 320.644531 " fill-opacity="1" fill-rule="nonzero"/><path fill="#0A0A24" d="M 762.246094 275.320312 C 768.898438 265.621094 759.585938 255.964844 745.265625 252.421875 C 746.378906 259.796875 746.160156 275.058594 760.023438 275.691406 C 758.21875 272.527344 757.585938 268.839844 753.761719 265.160156 C 757.585938 266.902344 760.929688 271.695312 762.246094 275.320312 Z M 762.246094 275.320312 " fill-opacity="1" fill-rule="nonzero"/><path fill="#0A0A24" d="M 743.183594 263.453125 C 729.011719 267.550781 720.09375 277.550781 727.105469 286.984375 C 728.277344 283.320312 731.433594 278.390625 735.191406 276.507812 C 731.511719 280.328125 731.019531 284.070312 729.34375 287.269531 C 743.167969 286.105469 742.359375 270.867188 743.183594 263.453125 Z M 743.183594 263.453125 " fill-opacity="1" fill-rule="nonzero"/><path fill="#0A0A24" d="M 752.535156 323.011719 C 761.082031 314.941406 754.03125 303.539062 740.777344 297.035156 C 740.304688 304.480469 736.820312 319.355469 750.273438 322.898438 C 749.171875 319.457031 749.347656 315.691406 746.386719 311.285156 C 749.726562 313.792969 751.980469 319.195312 752.535156 323.011719 Z M 752.535156 323.011719 " fill-opacity="1" fill-rule="nonzero"/><path fill="#0A0A24" d="M 631.542969 257.019531 C 630.457031 253.324219 630.308594 247.46875 632.332031 243.804688 C 631.4375 249.035156 633.125 252.40625 633.535156 255.988281 C 644.328125 247.285156 635.117188 235.109375 631.628906 228.507812 C 622.21875 239.855469 620.441406 253.140625 631.542969 257.019531 Z M 631.542969 257.019531 " fill-opacity="1" fill-rule="nonzero"/><path fill="#0A0A24" d="M 711.5 247.570312 C 711.601562 243.714844 713.257812 238.074219 716.335938 235.25 C 713.875 239.941406 714.453125 243.675781 713.730469 247.214844 C 726.683594 242.230469 721.644531 227.820312 720.363281 220.476562 C 707.898438 228.375 702.125 240.480469 711.5 247.570312 Z M 711.5 247.570312 " fill-opacity="1" fill-rule="nonzero"/><path fill="#0A0A24" d="M 736.378906 191.429688 C 734.082031 188.628906 732.855469 185.097656 728.464844 182.050781 C 732.515625 183.144531 736.601562 187.339844 738.484375 190.699219 C 743.46875 180.058594 732.722656 172.035156 718.011719 170.863281 C 720.339844 177.953125 722.59375 193.050781 736.378906 191.429688 Z M 736.378906 191.429688 " fill-opacity="1" fill-rule="nonzero"/><path fill="#0A0A24" d="M 668.4375 207.675781 C 665.273438 205.910156 662.835938 203.035156 657.667969 201.828125 C 661.847656 201.367188 667.164062 203.78125 670.164062 206.21875 C 670.914062 194.484375 657.976562 190.953125 643.855469 195.226562 C 648.585938 200.996094 656.207031 214.226562 668.4375 207.675781 Z M 668.4375 207.675781 " fill-opacity="1" fill-rule="nonzero"/><path fill="#0A0A24" d="M 650.460938 231.964844 C 648.703125 228.800781 648.085938 225.082031 644.359375 221.347656 C 648.160156 223.144531 651.433594 227.992188 652.691406 231.632812 C 659.488281 222.035156 650.320312 212.246094 636.074219 208.480469 C 637.007812 215.871094 636.582031 231.136719 650.460938 231.964844 Z M 650.460938 231.964844 " fill-opacity="1" fill-rule="nonzero"/><g clip-path="url(#b6f8dc8358)"><path fill="#0A0A24" d="M 685.324219 182.535156 C 681.835938 186.53125 681.527344 190.289062 680 193.566406 C 693.75 191.738281 692.214844 176.554688 692.660156 169.105469 C 678.703125 173.855469 670.257812 184.300781 677.71875 193.382812 C 678.75 189.65625 681.667969 184.570312 685.324219 182.535156 Z M 685.324219 182.535156 " fill-opacity="1" fill-rule="nonzero"/></g><path fill="#0A0A24" d="M 690.925781 214.675781 C 691.949219 210.964844 694.882812 205.910156 698.578125 203.875 C 695.058594 207.832031 694.726562 211.605469 693.175781 214.867188 C 706.941406 213.140625 705.511719 197.941406 706.03125 190.503906 C 692.035156 195.195312 683.527344 205.539062 690.925781 214.675781 Z M 690.925781 214.675781 " fill-opacity="1" fill-rule="nonzero"/><path fill="#0A0A24" d="M 701.316406 270.484375 C 705.097656 259.351562 693.53125 252.570312 678.78125 253.023438 C 681.84375 259.828125 685.753906 274.585938 699.265625 271.441406 C 696.679688 268.917969 695.074219 265.507812 690.398438 262.992188 C 694.550781 263.632812 699.070312 267.351562 701.316406 270.484375 Z M 701.316406 270.484375 " fill-opacity="1" fill-rule="nonzero"/><path fill="#0A0A24" d="M 737.945312 219.726562 C 744.503906 209.976562 735.121094 200.402344 720.765625 196.976562 C 721.9375 204.34375 721.851562 219.605469 735.714844 220.121094 C 733.886719 217.003906 733.222656 213.292969 729.382812 209.644531 C 733.207031 211.304688 736.601562 216.085938 737.945312 219.726562 Z M 737.945312 219.726562 " fill-opacity="1" fill-rule="nonzero"/><path fill="#0A0A24" d="M 786.09375 292.523438 C 796.230469 298.472656 805.203125 288.519531 807.734375 273.976562 C 800.464844 275.605469 785.214844 276.460938 785.578125 290.332031 C 788.578125 288.304688 792.242188 287.417969 795.644531 283.34375 C 794.164062 287.269531 789.609375 290.941406 786.09375 292.523438 Z M 786.09375 292.523438 " fill-opacity="1" fill-rule="nonzero"/><path fill="#0A0A24" d="M 826.789062 276.753906 C 838.050781 280.117188 844.402344 268.308594 843.40625 253.585938 C 836.726562 256.890625 822.128906 261.355469 825.761719 274.742188 C 828.191406 272.066406 831.539062 270.328125 833.871094 265.5625 C 833.382812 269.734375 829.835938 274.386719 826.789062 276.753906 Z M 826.789062 276.753906 " fill-opacity="1" fill-rule="nonzero"/><path fill="#0A0A24" d="M 801.675781 235.472656 C 804.046875 232.449219 808.726562 228.917969 812.902344 228.460938 C 808.15625 230.769531 806.367188 234.109375 803.675781 236.523438 C 817.050781 240.234375 821.589844 225.660156 824.9375 218.996094 C 810.21875 217.914062 798.375 224.195312 801.675781 235.472656 Z M 801.675781 235.472656 " fill-opacity="1" fill-rule="nonzero"/><path fill="#0A0A24" d="M 805.726562 295.300781 C 801.992188 301.757812 792.273438 313.554688 802.742188 322.695312 C 803.289062 319.117188 805.117188 315.816406 804.421875 310.554688 C 806.328125 314.300781 805.949219 320.136719 804.722656 323.792969 C 815.957031 320.359375 814.707031 307.011719 805.726562 295.300781 Z M 805.726562 295.300781 " fill-opacity="1" fill-rule="nonzero"/><path fill="#0A0A24" d="M 843.753906 237.796875 C 838.824219 239.746094 836.824219 242.949219 833.96875 245.15625 C 847.03125 249.839844 852.625 235.660156 856.445312 229.234375 C 841.855469 227.074219 829.542969 232.480469 832.042969 243.96875 C 834.640625 241.089844 839.578125 237.925781 843.753906 237.796875 Z M 843.753906 237.796875 " fill-opacity="1" fill-rule="nonzero"/><path fill="#0A0A24" d="M 852.433594 270.859375 C 853.75 267.488281 856.257812 264.667969 856.730469 259.382812 C 857.769531 263.460938 856.113281 269.070312 854.121094 272.359375 C 865.839844 271.484375 867.574219 258.179688 861.351562 244.792969 C 856.296875 250.269531 844.253906 259.652344 852.433594 270.859375 Z M 852.433594 270.859375 " fill-opacity="1" fill-rule="nonzero"/><path fill="#0A0A24" d="M 871.070312 285.347656 C 867.675781 281.269531 864.003906 280.382812 861.011719 278.359375 C 860.664062 292.230469 875.90625 293.085938 883.167969 294.707031 C 880.636719 280.171875 871.664062 270.175781 861.519531 276.167969 C 865.054688 277.734375 869.644531 281.445312 871.070312 285.347656 Z M 871.070312 285.347656 " fill-opacity="1" fill-rule="nonzero"/><path fill="#0A0A24" d="M 797.265625 214.042969 C 797.582031 210.441406 799.199219 207.03125 798.175781 201.828125 C 800.3125 205.441406 800.296875 211.320312 799.300781 215.015625 C 810.308594 210.886719 808.21875 197.609375 798.507812 186.53125 C 795.203125 193.195312 786.269531 205.578125 797.265625 214.042969 Z M 797.265625 214.042969 " fill-opacity="1" fill-rule="nonzero"/><path fill="#0A0A24" d="M 616.246094 209.4375 C 613.269531 213.863281 613.460938 217.628906 612.351562 221.070312 C 625.804688 217.535156 622.332031 202.65625 621.847656 195.210938 C 608.601562 201.707031 601.550781 213.109375 610.105469 221.179688 C 610.621094 217.351562 612.875 211.960938 616.246094 209.4375 Z M 616.246094 209.4375 " fill-opacity="1" fill-rule="nonzero"/><path fill="#0A0A24" d="M 795.574219 230.804688 C 800.558594 220.160156 789.804688 212.144531 775.101562 210.964844 C 777.390625 218.085938 779.652344 233.160156 793.429688 231.539062 C 791.144531 228.738281 789.917969 225.207031 785.515625 222.164062 C 789.601562 223.246094 793.683594 227.441406 795.574219 230.804688 Z M 795.574219 230.804688 " fill-opacity="1" fill-rule="nonzero"/><path fill="#0A0A24" d="M 754.632812 217.507812 C 756.855469 214.34375 761.351562 210.617188 765.496094 209.953125 C 760.84375 212.484375 759.253906 215.910156 756.691406 218.460938 C 770.222656 221.503906 774.035156 206.714844 777.050781 199.894531 C 762.300781 199.546875 750.78125 206.40625 754.632812 217.507812 Z M 754.632812 217.507812 " fill-opacity="1" fill-rule="nonzero"/><path fill="#0A0A24" d="M 785.652344 262.96875 C 793.9375 254.636719 786.5625 243.464844 773.109375 237.386719 C 772.871094 244.839844 769.945312 259.8125 783.394531 262.929688 C 782.183594 259.527344 782.242188 255.753906 779.140625 251.449219 C 782.605469 253.84375 784.980469 259.171875 785.652344 262.96875 Z M 785.652344 262.96875 " fill-opacity="1" fill-rule="nonzero"/><path fill="#0A0A24" d="M 757.285156 187.386719 C 753.769531 191.34375 753.4375 195.117188 751.886719 198.375 C 765.65625 196.652344 764.222656 181.449219 764.746094 174.011719 C 750.746094 178.6875 742.242188 189.046875 749.632812 198.1875 C 750.636719 194.476562 753.589844 189.417969 757.285156 187.386719 Z M 757.285156 187.386719 " fill-opacity="1" fill-rule="nonzero"/><path fill="#0A0A24" d="M 823.878906 244.367188 C 809.128906 244.691406 797.933594 252.074219 802.292969 262.992188 C 804.371094 259.75 808.683594 255.792969 812.800781 254.9375 C 808.265625 257.691406 806.832031 261.179688 804.390625 263.839844 C 818.054688 266.261719 821.179688 251.3125 823.878906 244.367188 Z M 823.878906 244.367188 " fill-opacity="1" fill-rule="nonzero"/><path fill="#0A0A24" d="M 657.859375 264.035156 C 671.730469 263.816406 671.960938 248.550781 673.28125 241.207031 C 658.863281 244.375 649.28125 253.71875 655.644531 263.601562 C 657.066406 260.023438 660.550781 255.324219 664.417969 253.695312 C 660.496094 257.261719 659.757812 260.957031 657.859375 264.035156 Z M 657.859375 264.035156 " fill-opacity="1" fill-rule="nonzero"/><path fill="#0A0A24" d="M 795.882812 375.1875 C 792.757812 388.703125 807.523438 392.597656 814.328125 395.660156 C 814.761719 380.910156 807.996094 369.347656 796.839844 373.136719 C 800.003906 375.386719 803.699219 379.902344 804.339844 384.050781 C 801.832031 379.382812 798.429688 377.769531 795.882812 375.1875 Z M 795.882812 375.1875 " fill-opacity="1" fill-rule="nonzero"/><path fill="#0A0A24" d="M 765.804688 371.847656 C 761.523438 385.046875 775.894531 390.207031 782.421875 393.839844 C 784.132812 379.175781 778.363281 367.078125 766.953125 369.894531 C 769.882812 372.394531 773.195312 377.222656 773.480469 381.40625 C 771.359375 376.535156 768.101562 374.640625 765.804688 371.847656 Z M 765.804688 371.847656 " fill-opacity="1" fill-rule="nonzero"/><path fill="#0A0A24" d="M 586.683594 338.988281 C 592.761719 352.4375 603.933594 359.84375 612.265625 351.550781 C 608.476562 350.910156 603.140625 348.492188 600.746094 345.039062 C 605.058594 348.132812 608.824219 348.085938 612.234375 349.296875 C 609.109375 335.773438 594.136719 338.75 586.683594 338.988281 Z M 586.683594 338.988281 " fill-opacity="1" fill-rule="nonzero"/><path fill="#0A0A24" d="M 572.972656 356.617188 C 569.148438 356.179688 563.695312 354.046875 561.101562 350.738281 C 565.5625 353.59375 569.332031 353.339844 572.796875 354.363281 C 568.957031 341.011719 554.179688 344.785156 546.746094 345.429688 C 553.535156 358.53125 565.097656 365.320312 572.972656 356.617188 Z M 572.972656 356.617188 " fill-opacity="1" fill-rule="nonzero"/><path fill="#0A0A24" d="M 586.785156 367.511719 C 577.148438 360.785156 567.414062 370.011719 563.753906 384.304688 C 571.136719 383.257812 586.367188 383.597656 587.160156 369.753906 C 583.992188 371.523438 580.28125 372.125 576.578125 375.917969 C 578.328125 372.109375 583.203125 368.800781 586.785156 367.511719 Z M 586.785156 367.511719 " fill-opacity="1" fill-rule="nonzero"/><path fill="#0A0A24" d="M 614.132812 365.914062 C 602.730469 363.058594 596.921875 375.148438 598.585938 389.8125 C 605.113281 386.203125 619.496094 381.105469 615.257812 367.875 C 612.953125 370.660156 609.71875 372.546875 607.566406 377.371094 C 607.867188 373.234375 611.199219 368.40625 614.132812 365.914062 Z M 614.132812 365.914062 " fill-opacity="1" fill-rule="nonzero"/><path fill="#0A0A24" d="M 853.296875 395.144531 C 849.625 380.855469 839.894531 371.628906 830.253906 378.351562 C 833.886719 379.644531 838.714844 382.949219 840.488281 386.757812 C 836.777344 382.964844 833.050781 382.363281 829.90625 380.585938 C 830.652344 394.441406 845.90625 394.089844 853.296875 395.144531 Z M 853.296875 395.144531 " fill-opacity="1" fill-rule="nonzero"/><path fill="#0A0A24" d="M 859.628906 291.136719 C 852.191406 290.6875 837.296875 287.300781 833.800781 300.726562 C 837.242188 299.613281 841.007812 299.769531 845.402344 296.773438 C 842.910156 300.152344 837.488281 302.421875 833.707031 302.960938 C 841.800781 311.515625 853.179688 304.390625 859.628906 291.136719 Z M 859.628906 291.136719 " fill-opacity="1" fill-rule="nonzero"/><path fill="#0A0A24" d="M 822.605469 327.179688 C 830.390625 335.980469 842.015625 329.285156 848.929688 316.253906 C 841.507812 315.542969 826.773438 311.632812 822.777344 324.957031 C 826.25 323.960938 830.019531 324.253906 834.511719 321.4375 C 831.902344 324.695312 826.433594 326.777344 822.605469 327.179688 Z M 822.605469 327.179688 " fill-opacity="1" fill-rule="nonzero"/><g clip-path="url(#ee2129c064)"><path fill="#0A0A24" d="M 862.121094 328.859375 C 865.121094 326.839844 868.78125 325.953125 872.1875 321.878906 C 870.722656 325.835938 866.164062 329.492188 862.691406 331.058594 C 872.828125 337.007812 881.800781 327.046875 884.339844 312.511719 C 877.019531 314.140625 861.773438 314.996094 862.121094 328.859375 Z M 862.121094 328.859375 " fill-opacity="1" fill-rule="nonzero"/></g><path fill="#0A0A24" d="M 844.078125 362.945312 C 847.246094 361.222656 850.996094 360.691406 854.769531 356.972656 C 852.933594 360.746094 848.042969 363.96875 844.386719 365.1875 C 853.882812 372.085938 863.804688 363.050781 867.730469 348.824219 C 860.332031 349.734375 845.117188 349.109375 844.078125 362.945312 Z M 844.078125 362.945312 " fill-opacity="1" fill-rule="nonzero"/><path fill="#0A0A24" d="M 647.199219 357.535156 C 635.980469 354.054688 629.507812 365.796875 630.363281 380.527344 C 637.074219 377.285156 651.726562 372.972656 648.222656 359.550781 C 645.761719 362.203125 642.398438 363.90625 640.015625 368.644531 C 640.539062 364.480469 644.128906 359.859375 647.199219 357.535156 Z M 647.199219 357.535156 " fill-opacity="1" fill-rule="nonzero"/><path fill="#0A0A24" d="M 806.183594 361.117188 C 814.515625 369.410156 825.699219 361.996094 831.773438 348.554688 C 824.320312 348.316406 809.351562 345.339844 806.222656 358.839844 C 809.628906 357.636719 813.402344 357.683594 817.714844 354.589844 C 815.308594 358.058594 809.984375 360.476562 806.183594 361.117188 Z M 806.183594 361.117188 " fill-opacity="1" fill-rule="nonzero"/><path fill="#0A0A24" d="M 562.203125 281.769531 C 559.035156 283.542969 555.324219 284.144531 551.605469 287.910156 C 553.386719 284.105469 558.222656 280.789062 561.894531 279.539062 C 552.277344 272.78125 542.523438 281.984375 538.820312 296.265625 C 546.164062 295.238281 561.425781 295.617188 562.203125 281.769531 Z M 562.203125 281.769531 " fill-opacity="1" fill-rule="nonzero"/><g clip-path="url(#b6c46ef03a)"><path fill="#0A0A24" d="M 556.09375 327.203125 C 552.617188 325.542969 548.179688 321.753906 546.796875 317.78125 C 550.085938 321.933594 553.734375 322.925781 556.679688 325.019531 C 557.382812 311.164062 542.167969 309.929688 534.933594 308.101562 C 537.085938 322.695312 545.804688 332.878906 556.09375 327.203125 Z M 556.09375 327.203125 " fill-opacity="1" fill-rule="nonzero"/></g><path fill="#0A0A24" d="M 599.820312 240.480469 C 596.488281 244.601562 596.320312 248.394531 594.921875 251.699219 C 608.59375 249.328125 606.480469 234.238281 606.671875 226.785156 C 592.902344 232.078125 584.863281 242.816406 592.699219 251.605469 C 593.488281 247.855469 596.242188 242.671875 599.820312 240.480469 Z M 599.820312 240.480469 " fill-opacity="1" fill-rule="nonzero"/><path fill="#0A0A24" d="M 569.75 295.054688 C 566.53125 309.457031 571.023438 322.09375 582.664062 320.472656 C 580.011719 317.679688 577.203125 312.558594 577.363281 308.339844 C 578.945312 313.40625 581.992188 315.628906 583.992188 318.628906 C 589.628906 305.976562 575.875 299.335938 569.75 295.054688 Z M 569.75 295.054688 " fill-opacity="1" fill-rule="nonzero"/><path fill="#0A0A24" d="M 602.90625 287.640625 C 603.757812 283.890625 606.488281 278.707031 610.027344 276.507812 C 606.6875 280.628906 606.519531 284.421875 605.121094 287.734375 C 618.792969 285.363281 616.6875 270.273438 616.878906 262.816406 C 603.140625 268.113281 595.070312 278.839844 602.90625 287.640625 Z M 602.90625 287.640625 " fill-opacity="1" fill-rule="nonzero"/><path fill="#0A0A24" d="M 582.300781 247.417969 C 579.585938 245.046875 577.789062 241.714844 572.988281 239.507812 C 577.164062 239.917969 581.878906 243.382812 584.292969 246.390625 C 587.460938 235.074219 575.550781 228.925781 560.847656 230.171875 C 564.273438 236.761719 568.957031 251.28125 582.300781 247.417969 Z M 582.300781 247.417969 " fill-opacity="1" fill-rule="nonzero"/><path fill="#0A0A24" d="M 677.617188 367.273438 C 667.449219 361.371094 658.515625 371.375 656.054688 385.925781 C 663.320312 384.265625 678.558594 383.339844 678.148438 369.476562 C 675.164062 371.507812 671.5 372.410156 668.121094 376.5 C 669.5625 372.554688 674.105469 368.859375 677.617188 367.273438 Z M 677.617188 367.273438 " fill-opacity="1" fill-rule="nonzero"/><path fill="#0A0A24" d="M 628.757812 283.242188 C 616.578125 291.566406 611.230469 303.871094 620.84375 310.628906 C 620.84375 306.773438 622.265625 301.132812 625.242188 298.140625 C 622.949219 302.929688 623.660156 306.632812 623.058594 310.199219 C 635.839844 304.765625 630.292969 290.535156 628.757812 283.242188 Z M 628.757812 283.242188 " fill-opacity="1" fill-rule="nonzero"/><path fill="#0A0A24" d="M 690.816406 340.378906 C 697.144531 330.503906 687.59375 321.121094 673.171875 317.996094 C 674.5 325.328125 674.753906 340.59375 688.601562 340.824219 C 686.703125 337.746094 685.964844 334.042969 682.03125 330.480469 C 685.878906 332.085938 689.359375 336.835938 690.816406 340.378906 Z M 690.816406 340.378906 " fill-opacity="1" fill-rule="nonzero"/><path fill="#0A0A24" d="M 581.390625 272.234375 C 578.535156 270.027344 576.539062 266.820312 571.609375 264.867188 C 575.804688 265.027344 580.726562 268.199219 583.3125 271.046875 C 585.789062 259.558594 573.515625 254.152344 558.917969 256.296875 C 562.738281 262.699219 568.324219 276.910156 581.390625 272.234375 Z M 581.390625 272.234375 " fill-opacity="1" fill-rule="nonzero"/><path fill="#0A0A24" d="M 662.386719 306.917969 C 676.257812 306.695312 676.484375 291.429688 677.808594 284.085938 C 663.390625 287.253906 653.800781 296.597656 660.167969 306.480469 C 661.585938 302.90625 665.074219 298.195312 668.945312 296.574219 C 665.019531 300.144531 664.277344 303.839844 662.386719 306.917969 Z M 662.386719 306.917969 " fill-opacity="1" fill-rule="nonzero"/><g clip-path="url(#576915ef63)"><path fill="#0A0A24" d="M 840.722656 501.128906 C 833.230469 504.355469 828.191406 496.070312 819.953125 497.734375 C 808.550781 500.035156 801.984375 497.875 794.773438 496.617188 C 787.835938 494.894531 781.117188 493.515625 775.65625 490.4375 C 765.601562 484.757812 754.03125 487.375 746.695312 481.941406 C 742.195312 478.59375 738.277344 471.195312 737.121094 465.203125 C 734.097656 449.570312 742.367188 434.914062 732.238281 403.601562 C 731.171875 411.691406 729.621094 427.167969 728.410156 431.132812 C 725.773438 439.789062 721.652344 443.105469 711 460.371094 C 707.835938 465.433594 708.960938 464.699219 706.871094 470.824219 C 706.421875 471.765625 706.144531 476.359375 704.085938 479.652344 C 701.785156 483.027344 700.09375 486.683594 699.015625 490.621094 C 701.742188 486.8125 705.976562 483.5 708.042969 479.429688 C 709.085938 477.390625 708.984375 476.070312 709.839844 474.265625 C 710.789062 472.285156 711.652344 471.890625 712.765625 468.472656 C 714.476562 463.289062 720.132812 458.050781 722.71875 453.898438 C 721.984375 458.597656 717.183594 464.308594 715.726562 468.425781 C 714.269531 472.539062 712.285156 477.035156 710.652344 480.785156 C 709.023438 483.761719 707.03125 486.476562 704.675781 488.921875 C 702.320312 491.363281 699.683594 493.457031 696.765625 495.195312 C 693.15625 497.320312 689.300781 498.816406 685.199219 499.679688 C 688.078125 497.6875 691.09375 495.574219 693.441406 492.457031 C 695.027344 490.390625 696.132812 487.488281 697.296875 485.292969 C 699.449219 481.414062 700.808594 477.273438 701.371094 472.871094 C 706.324219 454.886719 712.046875 450.074219 715.742188 443.039062 C 718.40625 437.96875 723.8125 434.171875 725.507812 423.945312 C 728.308594 407.035156 728.472656 394.3125 735.414062 384.019531 C 738.808594 378.984375 737.191406 376.960938 740.160156 371.785156 C 735.492188 374.421875 733.140625 380.949219 729.234375 383.65625 C 726.859375 385.238281 724.445312 385.355469 721.976562 387.902344 C 713.945312 396.179688 714.640625 400.683594 711.027344 405.3125 C 708.507812 408.476562 705.027344 411.082031 702.25 414.46875 C 699.726562 417.5625 697.84375 421.890625 695.707031 425.046875 C 692.351562 430 689.9375 435.089844 689.375 441.332031 C 689.003906 445.582031 688.695312 447.089844 690.238281 451.957031 C 690.414062 448.058594 691.03125 445.96875 692.414062 441.980469 C 694.75 435.316406 700.769531 431.695312 704.425781 423.84375 C 704.179688 432.660156 696.804688 438.402344 695.722656 442.644531 C 694.28125 448.253906 692.660156 450.144531 691.988281 455.820312 C 689.234375 479.265625 673.929688 478.324219 656.902344 487.96875 C 643.742188 495.40625 623.445312 493.917969 605.878906 497.597656 C 587.253906 501.554688 588.574219 501.699219 568.339844 502.269531 C 556.394531 502.601562 548.804688 512.101562 547.308594 517.832031 C 554.203125 509.207031 565.199219 508.242188 570.460938 507.695312 C 576 507.117188 580.644531 509.960938 592.183594 507.839844 C 591.613281 513.710938 588.226562 518.65625 583.621094 520.609375 C 578.082031 522.984375 572.597656 525.832031 570.652344 529.605469 C 576.523438 525.992188 579 526.300781 585.582031 523.773438 C 592.167969 521.25 594.105469 519.722656 598.386719 514.707031 C 602.429688 509.960938 617.550781 507.433594 626.992188 508.132812 C 616.703125 513.804688 616.894531 520.507812 612.75 525.128906 C 610.777344 527.328125 606.996094 528.484375 602.320312 530.105469 C 596.457031 533.089844 589.992188 534.789062 585.28125 538.808594 C 581.902344 541.714844 581.136719 548.4375 583.636719 553.351562 C 583.914062 547.996094 584.886719 543.859375 591.835938 540.375 C 596.691406 537.945312 606.164062 536.492188 611.480469 534.882812 C 610.421875 542.625 601.835938 546.691406 599.613281 554.007812 C 598.820312 556.722656 598.148438 565.949219 603.941406 572.210938 C 602.9375 566.304688 599.921875 556.382812 607.105469 549.800781 C 609.804688 547.308594 613.292969 543.898438 615.753906 543.136719 C 621.917969 553.945312 621.675781 555.457031 620.734375 563.648438 C 628.550781 550.597656 623.152344 552.839844 622.054688 538.136719 C 621.261719 527.4375 628.1875 518.503906 633.6875 514.589844 C 640.015625 510.109375 645.625 513.3125 651.996094 512.824219 C 652.40625 515.988281 652.503906 519.707031 644.511719 524.035156 C 638.882812 527.082031 633.558594 531.695312 634.222656 538.691406 C 634.785156 544.347656 638.355469 546.058594 637.191406 552.464844 C 647.34375 544.441406 627.171875 535.445312 650.894531 528.324219 C 651.386719 536.023438 649.921875 538.105469 647.660156 542.820312 C 644.984375 548.398438 647.082031 551.359375 645.699219 556.421875 C 644.511719 560.765625 636.21875 561.605469 634.246094 565.515625 C 631.328125 571.1875 631.929688 576.980469 633.726562 580.5 C 633.835938 563.09375 640.449219 568.6875 648.0625 561.976562 C 651.972656 564.707031 653.015625 569.890625 652.613281 575.253906 C 656.492188 570.714844 653.523438 563.277344 651.03125 556.589844 C 650.011719 553.875 651.078125 551.089844 651.457031 549.136719 C 652.605469 545.050781 655.683594 541.949219 656.507812 539.285156 C 657.984375 534.535156 659.433594 531.734375 661.710938 526.535156 C 665.835938 517.160156 668.542969 515.15625 676.835938 511.503906 C 680.710938 514.847656 677.214844 526.132812 668.921875 529.1875 C 666.324219 530.144531 663.914062 531.664062 663.382812 534.574219 C 665.511719 532.8125 669.710938 531.53125 671.976562 532.367188 C 670.574219 537.058594 666.738281 542.164062 673.691406 549.925781 C 672.839844 544.101562 670.789062 540.929688 675.277344 535.453125 C 676.265625 534.242188 683.316406 527.175781 686.164062 520.640625 C 686.90625 519.019531 690.515625 515.347656 692.574219 514.160156 C 694.464844 515.199219 696.246094 522.074219 695.652344 524.75 C 693.277344 535.429688 691.464844 540.421875 685.269531 545.613281 C 678.054688 551.652344 667.917969 558.3125 664.433594 566.679688 C 663.230469 569.550781 664.085938 585.210938 654.941406 591.328125 C 664.0625 590.535156 667.742188 578.339844 668.082031 574.621094 C 668.582031 569.125 667.15625 569.582031 671.523438 565.175781 C 675.480469 561.15625 679.011719 559.265625 686.09375 555.09375 C 689.667969 558.8125 690.601562 565.824219 689.898438 568.316406 C 689.050781 571.316406 686.9375 573.0625 686.566406 580.566406 C 686.179688 588.476562 691.101562 591.644531 686.25 601.136719 C 691.648438 597.902344 691.566406 592.132812 690.683594 582.78125 C 690.445312 580.328125 691.679688 578.074219 693.292969 576.054688 C 695.011719 573.902344 694.804688 569.519531 695.523438 567.40625 C 699.101562 569.683594 706.484375 572.722656 709.15625 575.699219 C 711.652344 578.460938 714.785156 581.847656 714.023438 587.347656 C 716.398438 585.890625 716.914062 579.433594 715.03125 575.984375 C 709.386719 565.65625 695.523438 566.875 696.578125 551.382812 C 697.636719 535.707031 712.261719 528.871094 710.441406 509.40625 C 717.292969 515.238281 719.933594 526.8125 719.058594 535.929688 C 718.734375 539.363281 717.125 544.253906 716.34375 549.039062 C 715.289062 555.371094 718.242188 558.726562 723.695312 561.921875 C 719.917969 558.164062 719.367188 551.914062 721.875 545.472656 C 723.882812 540.320312 726.105469 537.773438 728.527344 531.902344 C 737.714844 537.335938 735.894531 549.222656 735.105469 558.417969 C 734.511719 565.363281 731.441406 569.421875 730.800781 572.367188 C 730.230469 575.003906 731.527344 582.296875 736.84375 584.742188 C 733.625 579.519531 734.203125 574.765625 735.46875 571.933594 C 736.734375 569.097656 740.058594 566.851562 741.292969 564.667969 C 747.734375 567.042969 752.996094 574.335938 754.484375 578.398438 C 756.601562 584.1875 753.621094 588.90625 754.59375 594.671875 C 756.699219 586.761719 761.304688 580.859375 757.679688 572.984375 C 756.480469 570.578125 754.972656 568.382812 753.144531 566.410156 C 745.335938 557.515625 740.746094 552.417969 744.210938 538.128906 C 749.964844 538.539062 753.824219 543.90625 756.367188 546.871094 C 760.527344 551.730469 762.902344 559.042969 766.476562 567.003906 C 767.222656 568.664062 771.089844 568.625 774.203125 570.957031 C 777.492188 573.386719 781.179688 573.878906 782.4375 579.316406 C 784.613281 572.984375 779.78125 568.71875 774.375 565.648438 C 770.894531 563.664062 770.03125 561.21875 768.71875 555.109375 C 775.183594 560.964844 789.109375 558.710938 794.757812 563.316406 C 796.242188 564.433594 797.613281 565.679688 798.875 567.042969 C 800.457031 568.878906 801.453125 570.910156 802.828125 572.296875 C 799.726562 556.683594 790.335938 556.722656 782.257812 554.992188 C 770.734375 552.617188 772.761719 549.917969 768.171875 545.636719 C 762.140625 535.84375 751.65625 531.140625 741.585938 525.808594 C 734.035156 521.851562 730.507812 519.605469 729.820312 510.046875 C 739.441406 508.28125 753.859375 518.964844 758.519531 522.515625 C 763.457031 526.273438 769.921875 529.417969 774.851562 534.78125 C 776.550781 536.632812 779.90625 537.652344 781.726562 539.789062 C 784.101562 542.597656 785.269531 545.042969 785.507812 549.917969 C 788.5 545.171875 786.742188 540.035156 784.882812 537.386719 C 781.71875 532.84375 776.519531 531.847656 773.25 523.726562 C 779.675781 524.367188 781.957031 523.316406 784.765625 524.15625 C 794.625 527.097656 788.722656 538.917969 797.851562 542.117188 C 794.503906 536.539062 796.082031 531.789062 794.132812 526.441406 C 791.71875 519.828125 788.246094 519.714844 781.828125 519.320312 C 772.722656 518.757812 766.929688 514.46875 763.367188 509.863281 C 769.492188 510.488281 769.945312 510.734375 774.929688 511.296875 C 789.804688 512.980469 799.839844 516.273438 806.121094 532.34375 C 807.605469 535.914062 808.660156 539.605469 809.285156 543.421875 C 810.1875 549.871094 805.820312 552.402344 814.304688 556.527344 C 811.210938 550.339844 812.046875 554.863281 813.65625 538.191406 C 822.113281 540.429688 828.507812 536.085938 837.851562 545.140625 C 830.730469 528.078125 823.140625 541.46875 811.992188 527.4375 C 816.984375 524.636719 824.496094 526.316406 829.9375 526.464844 C 837.734375 526.679688 836.980469 531.5625 842.925781 532.96875 C 840.066406 528.410156 836.761719 524.011719 831.015625 522.523438 C 824.648438 520.984375 818.195312 519.992188 811.660156 519.558594 C 807.339844 519.21875 806.46875 517.398438 803.851562 514.207031 C 800.683594 510.339844 798.382812 509.261719 789.148438 505.703125 C 797.21875 506.128906 809.9375 506.90625 816.488281 510.742188 C 825.007812 516.449219 839.371094 514.984375 847.1875 518.316406 C 844.925781 513.410156 836.664062 513.070312 832.421875 511.984375 C 827.859375 510.773438 824.003906 508.558594 821.621094 504.601562 C 825.691406 504.347656 833.152344 507.980469 839.824219 506.5625 C 842.988281 505.890625 844.886719 504.746094 847.125 504.46875 C 851.808594 503.882812 863.863281 506.453125 867.699219 511.335938 C 867.777344 504.933594 851.683594 496.414062 840.722656 501.128906 Z M 840.722656 501.128906 " fill-opacity="1" fill-rule="nonzero"/></g><path fill="#0A0A24" d="M 694.566406 236.925781 C 686.613281 224.71875 677.230469 212.398438 681.464844 199.957031 C 672.757812 210.246094 684.628906 232.078125 685.523438 233.414062 C 682.59375 230.542969 661.4375 233.144531 656.507812 221.148438 C 654.828125 230.550781 669.761719 234.484375 679.960938 237.609375 C 686.773438 239.695312 690.324219 242.824219 694.203125 246.3125 C 698.082031 249.800781 702.375 253.601562 706.191406 260.382812 C 710.628906 269.640625 710.242188 280.351562 709.484375 288.496094 C 703.390625 279.410156 694.273438 283.683594 685.570312 271.972656 C 686.796875 279.546875 690.730469 282.972656 695.902344 286.082031 C 711.777344 295.578125 706.089844 306.171875 700.574219 319.316406 C 695.628906 331.105469 695.699219 336.898438 695.4375 346.628906 C 695.121094 358.5625 698.957031 366.460938 699.449219 378.402344 C 698.871094 387.214844 699.726562 389.835938 695.746094 401.015625 C 693.507812 407.296875 688.363281 413.328125 689.730469 429.226562 C 691.132812 422.71875 694.21875 419.230469 696.980469 415.859375 C 703.546875 407.867188 704.441406 404.511719 705.34375 397.851562 C 706.601562 388.5625 711.609375 381.78125 713.257812 377.316406 C 718.605469 362.828125 712.632812 351.0625 712.023438 336.882812 C 710.25 295.480469 741.300781 305.097656 743.308594 281.976562 C 737.359375 296.21875 724.390625 293.90625 717.199219 301.054688 C 724.320312 286.9375 719.058594 273.785156 727.910156 259.535156 C 738.785156 242.023438 771.15625 242.277344 768.71875 224.980469 C 763.179688 237.355469 748.878906 236.941406 745.296875 239.078125 C 747.773438 236.839844 755.921875 210.824219 740.675781 192.988281 C 747.171875 208.8125 745.859375 221.59375 740.382812 234.132812 C 739.226562 236.628906 737.78125 238.949219 736.054688 241.089844 C 734.328125 243.234375 732.367188 245.132812 730.175781 246.792969 C 733.53125 239.839844 725.65625 233.582031 727.007812 225.699219 C 722.070312 233.460938 730.300781 240.988281 723.109375 250.796875 C 720.285156 254.667969 719.269531 257.082031 716.492188 262.167969 C 710.691406 249.320312 698.390625 242.796875 699.488281 237.449219 C 701.371094 228.300781 714.253906 221.101562 712.457031 211.558594 C 711.445312 221.925781 694.574219 226.792969 694.566406 236.925781 Z M 694.566406 236.925781 " fill-opacity="1" fill-rule="nonzero"/><path fill="#0A0A24" d="M 844.996094 336.042969 C 846.902344 336.121094 861.335938 326.847656 859.667969 306.449219 C 856.019531 333.433594 830.230469 339.621094 807.183594 337.957031 C 817.917969 328.019531 819.050781 326.761719 825.714844 310.460938 C 828.695312 303.171875 830.460938 295.964844 834.078125 290.1875 C 838.515625 283.066406 847.292969 276.121094 861.417969 277.597656 C 842.851562 269.195312 826.742188 288.992188 825.429688 295.546875 C 825.902344 290.796875 812.046875 267.058594 830.753906 247.453125 C 805.679688 266.847656 820.121094 293.550781 819.882812 299.226562 C 819.089844 317.929688 809.484375 326.128906 795.25 337.5 C 796.230469 332.046875 797.148438 323.3125 792.742188 318.359375 C 795.113281 341.351562 778.386719 344.8125 760.542969 347.222656 C 778.949219 325.011719 765.664062 312.328125 801.429688 295.847656 C 790.191406 297.121094 780.769531 300.671875 773.226562 308.554688 C 773.648438 299.46875 773.828125 294.421875 777.183594 288.15625 C 781.015625 280.929688 809.492188 261.988281 796.015625 234.878906 C 802.269531 261.964844 778.75 272.203125 775.648438 279.191406 C 775.269531 271.078125 767.609375 266.441406 768.914062 243.171875 C 759.917969 262.792969 772.652344 272.667969 767.191406 296.542969 C 762.855469 288.179688 760.339844 284.671875 751.925781 282.84375 C 770.433594 297.390625 763.984375 315.707031 755.488281 330.132812 C 750.90625 337.910156 745.476562 347.882812 739.742188 352.105469 C 731.828125 357.929688 723.914062 366.785156 720.1875 373.828125 C 718.242188 378.726562 715.519531 381.890625 712.609375 388.441406 C 710.320312 393.578125 708.238281 397.074219 708.800781 402.9375 C 710.167969 399.09375 711.917969 395.429688 714.054688 391.957031 C 717.285156 386.605469 720.796875 383.804688 727.507812 379.59375 C 730.183594 377.910156 733.488281 369.378906 741.910156 366.484375 C 748.53125 363.160156 753.121094 361.300781 758.761719 360.945312 C 765.203125 360.5625 771.570312 361.097656 777.855469 362.542969 C 780.230469 363.089844 783.152344 364.332031 786.03125 365.203125 C 793.722656 367.574219 802.71875 371.058594 811.234375 372.640625 C 821.070312 374.460938 832.820312 374.222656 838.761719 364.410156 C 828.476562 370.835938 819.84375 369.453125 811.675781 367.433594 C 798.382812 364.15625 786.253906 353.492188 780.460938 353.601562 C 785.960938 352.351562 791.839844 349.003906 797.273438 347.019531 C 805.613281 343.972656 816.265625 345.4375 831.15625 341.992188 C 849.144531 337.847656 863.292969 348.609375 876.832031 335.949219 C 860.785156 342.375 849.640625 337.152344 844.996094 336.042969 Z M 844.996094 336.042969 " fill-opacity="1" fill-rule="nonzero"/><path fill="#0A0A24" d="M 569.210938 336.089844 C 584.65625 332.578125 587.949219 332.878906 603.539062 333.667969 C 618.570312 334.460938 624.324219 343.09375 637.355469 345.238281 C 628.019531 345.617188 607.050781 370.78125 578.800781 355.589844 C 593.542969 372.996094 617.425781 360.890625 633.597656 354.835938 C 641.511719 351.894531 652.1875 350.609375 661.988281 354.09375 C 666.902344 355.839844 671.066406 357.628906 674.546875 360.175781 C 677.710938 362.472656 683.25 366.089844 685.726562 370.359375 C 686.773438 372.148438 688.949219 376.136719 689.730469 377.855469 C 691.15625 381.019531 693.6875 388.480469 693.910156 394.472656 C 695.5625 390.640625 695.160156 384.628906 695.035156 380.355469 C 694.785156 374.925781 693.46875 369.769531 691.078125 364.886719 C 688 358.65625 683.722656 353.398438 678.242188 349.125 C 671.777344 344.035156 666.375 335.710938 666.59375 330.671875 C 666.753906 326.878906 665.34375 318.34375 674.832031 313.074219 C 679.421875 312.652344 690.816406 313.367188 693.03125 304.367188 C 687.777344 310.484375 681.441406 308.886719 677.632812 309.449219 C 679.050781 308.925781 688.15625 299.445312 681.984375 288.820312 C 684.84375 309.773438 664.578125 308.371094 658.183594 326.191406 C 653.214844 317.488281 650.035156 303.933594 653.4375 293.304688 C 656.910156 282.316406 666.144531 266.671875 679.722656 262.652344 C 665.773438 262.460938 655.4375 275.042969 648.253906 286.289062 C 641.003906 262.800781 656.292969 254.453125 645.832031 235.417969 C 648.894531 258.5625 638.273438 261.371094 638.511719 269.488281 C 634.878906 262.699219 611.832031 255.726562 616.03125 228.34375 C 604.628906 256.203125 633.28125 271.5625 637.648438 278.53125 C 647.011719 293.511719 639.097656 321.886719 658.855469 342.625 C 648.175781 339.9375 635.480469 336.984375 628.730469 329.617188 C 624.664062 325.179688 622.402344 318.199219 622.292969 309.433594 C 620.089844 316 620.820312 324.039062 623.636719 330.132812 C 577.109375 299.152344 609.757812 267.351562 586.445312 252.585938 C 597.042969 264.859375 589.230469 284.0625 590.0625 288.804688 C 588.265625 282.347656 575.21875 273.722656 563.792969 280.449219 C 591.242188 276.53125 586.097656 311.117188 603.355469 325.019531 C 579.863281 325.683594 565.832031 331.714844 557.636719 305.191406 C 557.515625 325.652344 571.015625 330.820312 572.914062 330.632812 C 568.367188 332.054688 556.164062 338.289062 539.679688 332.839844 C 548.203125 339.207031 560.554688 338.0625 569.210938 336.089844 Z M 569.210938 336.089844 " fill-opacity="1" fill-rule="nonzero"/></svg>