<svg xmlns="http://www.w3.org/2000/svg" xmlns:xlink="http://www.w3.org/1999/xlink" zoomAndPan="magnify" viewBox="528 136 444 455" preserveAspectRatio="xMidYMid meet" version="1.0"><defs><clipPath id="c41beef940"><path d="M 743 148.210938 L 774 148.210938 L 774 180 L 743 180 Z M 743 148.210938 " clip-rule="nonzero"/></clipPath><clipPath id="7d84fedd39"><path d="M 745.484375 546.824219 L 765.257812 546.824219 L 765.257812 578.710938 L 745.484375 578.710938 Z M 745.484375 546.824219 " clip-rule="nonzero"/></clipPath><clipPath id="cbe5d13284"><path d="M 540.496094 346 L 584 346 L 584 378 L 540.496094 378 Z M 540.496094 346 " clip-rule="nonzero"/></clipPath><clipPath id="c62a612894"><path d="M 936.429688 346.515625 L 960.425781 346.515625 L 960.425781 377.734375 L 936.429688 377.734375 Z M 936.429688 346.515625 " clip-rule="nonzero"/></clipPath></defs><g clip-path="url(#c41beef940)"><path fill="#ffffff" d="M 749.902344 178.867188 L 754.695312 178.867188 L 754.695312 177.046875 L 749.902344 176.417969 L 749.902344 154.171875 L 768.300781 179.191406 L 769.757812 179.191406 L 769.757812 150.695312 L 773.636719 150.117188 L 773.636719 148.289062 L 762.683594 148.289062 L 762.683594 150.117188 L 767.476562 150.714844 L 767.476562 171.214844 L 750.820312 148.289062 L 743.972656 148.289062 L 743.972656 150.117188 L 747.21875 150.523438 L 747.625 151.070312 L 747.625 176.488281 L 743.742188 177.046875 L 743.742188 178.867188 L 749.902344 178.867188 " fill-opacity="1" fill-rule="nonzero"/></g><g clip-path="url(#7d84fedd39)"><path fill="#ffffff" d="M 756.773438 560.878906 L 754.996094 560.195312 C 751.664062 558.914062 749.792969 557.230469 749.792969 554.351562 C 749.792969 550.929688 752.488281 549.148438 756.046875 549.148438 C 757.460938 549.148438 758.621094 549.417969 759.792969 550.078125 L 760.746094 555.222656 L 763.488281 555.222656 L 763.757812 549.285156 C 761.796875 547.824219 759.375 546.867188 756.316406 546.867188 C 750.523438 546.867188 746.09375 550.0625 746.09375 555.308594 C 746.09375 559.96875 749.289062 562.617188 753.945312 564.441406 L 755.683594 565.125 C 759.652344 566.679688 761.429688 568 761.429688 570.964844 C 761.429688 574.523438 758.554688 576.539062 754.21875 576.539062 C 752.230469 576.539062 750.875 576.164062 749.414062 575.347656 L 748.515625 570.007812 L 745.777344 570.007812 L 745.5 576.398438 C 747.601562 577.726562 750.933594 578.816406 754.355469 578.816406 C 760.609375 578.816406 765.132812 575.535156 765.132812 570.144531 C 765.132812 565.855469 762.800781 563.207031 756.773438 560.878906 " fill-opacity="1" fill-rule="nonzero"/></g><g clip-path="url(#cbe5d13284)"><path fill="#ffffff" d="M 577.738281 346.933594 L 572.808594 346.933594 L 572.808594 348.753906 L 577.066406 349.363281 L 571.191406 370.632812 L 564.320312 349.324219 L 568.972656 348.753906 L 568.972656 346.933594 L 556.65625 346.933594 L 556.65625 348.753906 L 561.289062 349.300781 L 554.257812 370.414062 L 548.570312 349.285156 L 552.820312 348.753906 L 552.820312 346.933594 L 540.496094 346.933594 L 540.496094 348.753906 L 544.34375 349.203125 L 552.59375 377.832031 L 554.371094 377.832031 L 561.878906 354.007812 L 569.890625 377.832031 L 571.71875 377.832031 L 579.378906 349.316406 L 583.214844 348.753906 L 583.214844 346.933594 L 577.738281 346.933594 " fill-opacity="1" fill-rule="nonzero"/></g><g clip-path="url(#c62a612894)"><path fill="#ffffff" d="M 957.871094 369.390625 L 956.847656 375.230469 L 945.035156 375.230469 C 944.949219 371.308594 944.949219 367.300781 944.949219 362.953125 L 951.851562 362.953125 L 952.4375 367.289062 L 954.492188 367.289062 L 954.492188 356.46875 L 952.4375 356.46875 L 951.8125 360.851562 L 944.949219 360.851562 C 944.949219 356.921875 944.949219 353.027344 945.035156 349.210938 L 955.9375 349.210938 L 956.960938 355.054688 L 959.515625 355.054688 L 959.191406 346.933594 L 936.503906 346.933594 L 936.503906 348.753906 L 940.761719 349.25 C 940.84375 353.1875 940.84375 357.148438 940.84375 361.078125 L 940.84375 363.363281 C 940.84375 367.359375 940.84375 371.320312 940.761719 375.195312 L 936.503906 375.683594 L 936.503906 377.511719 L 960.105469 377.511719 L 960.425781 369.390625 L 957.871094 369.390625 " fill-opacity="1" fill-rule="nonzero"/></g><path fill="#ffffff" d="M 876.992188 367.738281 L 874.546875 368.082031 L 835.203125 373.617188 L 833.960938 373.796875 L 789.777344 380.011719 L 779.121094 365.859375 C 779.152344 365.589844 779.179688 365.320312 779.199219 365.050781 L 896.121094 365.050781 Z M 764.960938 481.160156 L 770.546875 441.441406 C 784.902344 438.855469 797.925781 432.398438 808.503906 423.195312 L 833.511719 442.035156 C 833.527344 442.050781 833.542969 442.0625 833.558594 442.070312 C 833.605469 442.109375 833.652344 442.140625 833.703125 442.164062 C 833.75 442.195312 833.804688 442.21875 833.855469 442.238281 C 833.878906 442.25 833.914062 442.257812 833.9375 442.265625 C 833.953125 442.269531 833.964844 442.273438 833.972656 442.273438 C 834.015625 442.285156 834.054688 442.296875 834.09375 442.300781 C 834.15625 442.3125 834.222656 442.316406 834.285156 442.316406 C 834.355469 442.316406 834.425781 442.3125 834.496094 442.296875 C 834.5625 442.285156 834.628906 442.269531 834.699219 442.242188 C 834.699219 442.242188 834.703125 442.242188 834.707031 442.238281 C 834.835938 442.191406 834.964844 442.117188 835.078125 442.019531 C 835.121094 441.984375 835.160156 441.941406 835.199219 441.898438 C 835.25 441.84375 835.289062 441.78125 835.328125 441.71875 C 835.363281 441.65625 835.394531 441.589844 835.421875 441.519531 C 835.449219 441.453125 835.464844 441.386719 835.472656 441.3125 C 835.488281 441.246094 835.492188 441.179688 835.492188 441.109375 L 835.492188 441.105469 C 835.492188 441.042969 835.488281 440.980469 835.476562 440.917969 C 835.472656 440.875 835.464844 440.828125 835.453125 440.789062 C 835.449219 440.777344 835.449219 440.769531 835.441406 440.761719 C 835.4375 440.734375 835.425781 440.714844 835.417969 440.6875 C 835.40625 440.652344 835.390625 440.613281 835.375 440.585938 C 835.363281 440.5625 835.355469 440.542969 835.34375 440.519531 C 835.316406 440.476562 835.289062 440.429688 835.261719 440.386719 C 835.253906 440.382812 835.25 440.382812 835.25 440.375 L 835.222656 440.34375 L 816.378906 415.324219 C 825.578125 404.75 832.035156 391.726562 834.621094 377.371094 L 874.34375 371.777344 C 870.148438 430.179688 823.355469 476.96875 764.960938 481.160156 Z M 807.511719 422.453125 C 797.226562 431.339844 784.617188 437.597656 770.726562 440.179688 L 776.503906 399.097656 Z M 792.28125 383.328125 L 833.355469 377.546875 C 830.78125 391.4375 824.519531 404.050781 815.628906 414.332031 Z M 762.253906 385.332031 C 765.609375 384.445312 768.667969 382.8125 771.234375 380.621094 C 771.390625 380.492188 771.539062 380.355469 771.6875 380.222656 L 821.1875 429.722656 L 810.335938 421.546875 L 809.355469 420.808594 L 776.894531 396.359375 L 775.234375 395.109375 L 773.582031 393.863281 Z M 754.597656 502.945312 L 751.898438 483.808594 L 751.558594 481.371094 L 746.023438 442.023438 L 745.84375 440.777344 L 739.625 396.601562 L 753.785156 385.9375 C 754.054688 385.96875 754.324219 385.996094 754.597656 386.019531 Z M 638.480469 371.777344 L 678.203125 377.371094 C 680.789062 391.71875 687.246094 404.742188 696.441406 415.316406 L 677.570312 440.375 C 677.558594 440.390625 677.546875 440.402344 677.542969 440.417969 C 677.511719 440.457031 677.484375 440.503906 677.464844 440.546875 C 677.433594 440.597656 677.414062 440.65625 677.390625 440.707031 C 677.386719 440.726562 677.382812 440.746094 677.375 440.761719 C 677.359375 440.8125 677.347656 440.859375 677.339844 440.90625 L 677.339844 440.921875 C 677.328125 440.980469 677.324219 441.042969 677.324219 441.097656 L 677.324219 441.113281 C 677.324219 441.183594 677.328125 441.25 677.34375 441.316406 C 677.355469 441.386719 677.371094 441.453125 677.394531 441.519531 C 677.394531 441.527344 677.402344 441.527344 677.402344 441.53125 C 677.449219 441.660156 677.523438 441.785156 677.621094 441.898438 C 677.65625 441.941406 677.699219 441.984375 677.738281 442.019531 C 677.796875 442.070312 677.859375 442.113281 677.921875 442.148438 C 677.921875 442.148438 677.921875 442.148438 677.925781 442.15625 C 677.984375 442.1875 678.046875 442.21875 678.109375 442.238281 C 678.117188 442.242188 678.121094 442.242188 678.125 442.242188 C 678.1875 442.269531 678.253906 442.285156 678.324219 442.296875 C 678.394531 442.3125 678.46875 442.316406 678.535156 442.316406 C 678.597656 442.316406 678.667969 442.3125 678.730469 442.300781 C 678.757812 442.296875 678.796875 442.289062 678.832031 442.28125 C 678.847656 442.273438 678.863281 442.273438 678.878906 442.265625 C 678.910156 442.257812 678.941406 442.25 678.96875 442.238281 C 679.019531 442.21875 679.074219 442.191406 679.121094 442.164062 C 679.171875 442.140625 679.21875 442.109375 679.265625 442.070312 L 679.308594 442.035156 L 704.320312 423.195312 C 714.898438 432.398438 727.921875 438.855469 742.273438 441.441406 L 747.863281 481.160156 C 689.464844 476.96875 642.671875 430.179688 638.480469 371.777344 Z M 616.699219 361.417969 L 635.835938 358.722656 L 638.269531 358.378906 L 677.621094 352.84375 L 678.871094 352.667969 L 723.039062 346.449219 L 733.703125 360.601562 C 733.667969 360.871094 733.644531 361.148438 733.621094 361.417969 Z M 747.863281 245.296875 L 742.273438 285.019531 C 727.921875 287.605469 714.898438 294.0625 704.320312 303.265625 L 679.308594 284.425781 C 679.296875 284.410156 679.28125 284.402344 679.265625 284.390625 C 679.214844 284.351562 679.15625 284.316406 679.097656 284.285156 L 679.09375 284.285156 C 679.039062 284.253906 678.984375 284.230469 678.925781 284.214844 C 678.910156 284.207031 678.894531 284.203125 678.878906 284.199219 C 678.828125 284.183594 678.777344 284.171875 678.730469 284.160156 C 678.667969 284.152344 678.597656 284.148438 678.535156 284.148438 C 678.46875 284.148438 678.394531 284.152344 678.328125 284.167969 C 678.261719 284.175781 678.191406 284.195312 678.125 284.21875 C 678.121094 284.21875 678.121094 284.21875 678.117188 284.222656 C 677.984375 284.269531 677.859375 284.34375 677.746094 284.445312 C 677.605469 284.5625 677.5 284.707031 677.433594 284.863281 C 677.414062 284.902344 677.394531 284.941406 677.386719 284.984375 C 677.382812 284.996094 677.375 285.003906 677.375 285.015625 C 677.359375 285.058594 677.347656 285.105469 677.34375 285.144531 C 677.328125 285.21875 677.324219 285.285156 677.324219 285.359375 C 677.324219 285.421875 677.328125 285.484375 677.339844 285.546875 C 677.339844 285.546875 677.339844 285.546875 677.339844 285.550781 C 677.347656 285.597656 677.359375 285.652344 677.375 285.703125 C 677.382812 285.71875 677.386719 285.734375 677.390625 285.753906 C 677.414062 285.804688 677.433594 285.863281 677.464844 285.914062 C 677.484375 285.960938 677.511719 286.003906 677.542969 286.046875 C 677.546875 286.0625 677.558594 286.070312 677.570312 286.085938 L 696.441406 311.144531 C 687.246094 321.714844 680.789062 334.742188 678.203125 349.09375 L 638.480469 354.683594 C 642.667969 296.285156 689.460938 249.492188 747.863281 245.296875 Z M 705.308594 304.011719 C 715.589844 295.125 728.207031 288.867188 742.09375 286.289062 L 736.3125 327.367188 Z M 720.542969 343.136719 L 679.46875 348.914062 C 682.046875 335.03125 688.300781 322.417969 697.1875 312.132812 Z M 750.558594 341.128906 C 747.207031 342.019531 744.15625 343.648438 741.589844 345.839844 C 741.433594 345.964844 741.28125 346.101562 741.128906 346.242188 L 736.1875 341.296875 L 736.1875 341.292969 L 735.875 340.988281 L 734.582031 339.691406 L 701.964844 307.070312 L 701.957031 307.070312 L 701.113281 306.214844 L 701.105469 306.214844 L 691.628906 296.742188 L 702.484375 304.914062 L 703.46875 305.65625 L 735.925781 330.109375 L 737.589844 331.355469 L 739.242188 332.605469 Z M 758.226562 223.519531 L 760.921875 242.65625 L 761.265625 245.089844 L 766.800781 284.4375 L 766.976562 285.683594 L 773.195312 329.863281 L 759.042969 340.519531 C 758.773438 340.488281 758.503906 340.460938 758.226562 340.441406 Z M 815.632812 312.125 C 824.519531 322.414062 830.78125 335.023438 833.359375 348.914062 L 792.28125 343.136719 Z M 770.726562 286.285156 C 784.617188 288.867188 797.226562 295.125 807.511719 304.011719 L 776.503906 327.367188 Z M 778.511719 357.386719 C 777.628906 354.03125 775.996094 350.96875 773.804688 348.40625 C 773.675781 348.25 773.539062 348.097656 773.402344 347.953125 L 822.917969 298.4375 L 814.730469 309.308594 L 813.992188 310.289062 L 789.542969 342.75 L 788.289062 344.410156 L 787.039062 346.0625 Z M 736.3125 399.097656 L 742.09375 440.175781 C 728.207031 437.597656 715.589844 431.339844 705.308594 422.453125 Z M 697.1875 414.332031 C 688.308594 404.050781 682.046875 391.4375 679.472656 377.546875 L 720.542969 383.328125 Z M 698.09375 417.15625 L 698.832031 416.171875 L 723.28125 383.710938 L 724.535156 382.058594 L 725.78125 380.398438 L 734.308594 369.078125 C 735.195312 372.433594 736.828125 375.488281 739.019531 378.050781 C 739.148438 378.207031 739.28125 378.359375 739.417969 378.507812 L 734.164062 383.765625 L 732.867188 385.066406 L 732.863281 385.066406 L 700.25 417.675781 L 700.25 417.683594 L 699.398438 418.535156 L 699.394531 418.535156 L 689.90625 428.023438 Z M 758.226562 382.371094 C 758.027344 382.390625 757.824219 382.40625 757.621094 382.417969 C 757.230469 382.441406 756.828125 382.457031 756.429688 382.457031 L 756.394531 382.457031 C 755.996094 382.457031 755.59375 382.441406 755.199219 382.417969 C 754.996094 382.40625 754.792969 382.390625 754.597656 382.371094 C 754.5625 382.371094 754.535156 382.371094 754.507812 382.363281 C 750.597656 381.980469 747.035156 380.425781 744.167969 378.042969 C 744.015625 377.917969 743.859375 377.785156 743.707031 377.652344 L 743.703125 377.652344 C 743.398438 377.378906 743.109375 377.105469 742.820312 376.816406 C 742.535156 376.53125 742.261719 376.238281 741.992188 375.933594 C 741.859375 375.78125 741.730469 375.632812 741.601562 375.476562 L 741.601562 375.46875 C 739.222656 372.605469 737.664062 369.039062 737.273438 365.136719 C 737.273438 365.109375 737.269531 365.082031 737.269531 365.050781 C 737.25 364.847656 737.234375 364.644531 737.222656 364.441406 C 737.199219 364.050781 737.179688 363.65625 737.179688 363.253906 L 737.179688 363.214844 C 737.179688 362.8125 737.191406 362.417969 737.222656 362.023438 C 737.234375 361.820312 737.25 361.617188 737.269531 361.417969 C 737.269531 361.386719 737.269531 361.355469 737.273438 361.324219 C 737.660156 357.417969 739.222656 353.855469 741.59375 350.988281 C 741.722656 350.828125 741.855469 350.679688 741.992188 350.527344 L 741.992188 350.523438 C 742.261719 350.222656 742.53125 349.929688 742.820312 349.644531 C 743.105469 349.359375 743.394531 349.082031 743.703125 348.8125 C 743.851562 348.675781 744.007812 348.546875 744.164062 348.414062 C 747.03125 346.039062 750.59375 344.484375 754.496094 344.09375 C 754.527344 344.09375 754.558594 344.085938 754.597656 344.085938 C 754.792969 344.066406 754.996094 344.050781 755.199219 344.039062 C 755.59375 344.015625 755.992188 344 756.390625 344 L 756.433594 344 C 756.832031 344 757.230469 344.015625 757.617188 344.039062 C 757.820312 344.050781 758.023438 344.066406 758.226562 344.085938 C 758.257812 344.085938 758.289062 344.085938 758.320312 344.09375 C 762.226562 344.476562 765.792969 346.039062 768.660156 348.414062 C 768.816406 348.546875 768.972656 348.675781 769.121094 348.804688 L 769.121094 348.8125 C 769.429688 349.082031 769.71875 349.359375 770 349.644531 C 770.292969 349.929688 770.5625 350.222656 770.828125 350.523438 L 770.828125 350.527344 C 770.96875 350.679688 771.097656 350.828125 771.222656 350.988281 C 773.601562 353.855469 775.160156 357.417969 775.546875 361.324219 C 775.550781 361.355469 775.550781 361.386719 775.550781 361.417969 C 775.574219 361.617188 775.589844 361.820312 775.597656 362.023438 C 775.632812 362.417969 775.640625 362.8125 775.640625 363.214844 L 775.640625 363.253906 C 775.640625 363.65625 775.625 364.050781 775.597656 364.441406 C 775.589844 364.644531 775.574219 364.847656 775.550781 365.050781 C 775.550781 365.082031 775.546875 365.109375 775.546875 365.136719 C 775.15625 369.046875 773.597656 372.609375 771.222656 375.476562 C 771.09375 375.632812 770.964844 375.78125 770.828125 375.933594 C 770.828125 375.941406 770.828125 375.941406 770.828125 375.941406 C 770.5625 376.242188 770.289062 376.53125 770 376.816406 C 769.714844 377.105469 769.425781 377.378906 769.121094 377.652344 L 769.117188 377.652344 C 768.964844 377.785156 768.808594 377.917969 768.65625 378.042969 C 765.785156 380.425781 762.222656 381.980469 758.316406 382.363281 C 758.289062 382.371094 758.257812 382.371094 758.226562 382.371094 Z M 874.34375 354.683594 L 834.621094 349.09375 C 832.035156 334.738281 825.578125 321.710938 816.378906 311.136719 L 835.222656 286.117188 C 835.234375 286.109375 835.242188 286.089844 835.261719 286.074219 C 835.289062 286.035156 835.316406 285.988281 835.34375 285.941406 C 835.359375 285.921875 835.371094 285.898438 835.375 285.878906 C 835.390625 285.847656 835.40625 285.8125 835.417969 285.773438 C 835.425781 285.75 835.4375 285.726562 835.441406 285.703125 C 835.449219 285.699219 835.449219 285.683594 835.453125 285.675781 C 835.464844 285.632812 835.472656 285.585938 835.476562 285.546875 C 835.488281 285.484375 835.492188 285.421875 835.492188 285.359375 L 835.492188 285.355469 C 835.492188 285.285156 835.488281 285.21875 835.472656 285.144531 C 835.464844 285.078125 835.449219 285.011719 835.421875 284.941406 C 835.394531 284.875 835.363281 284.808594 835.328125 284.746094 C 835.289062 284.679688 835.25 284.621094 835.199219 284.5625 C 835.160156 284.519531 835.121094 284.480469 835.078125 284.445312 C 834.96875 284.34375 834.835938 284.269531 834.707031 284.222656 C 834.703125 284.21875 834.699219 284.21875 834.699219 284.21875 C 834.628906 284.195312 834.5625 284.175781 834.496094 284.167969 C 834.421875 284.152344 834.355469 284.148438 834.28125 284.148438 C 834.21875 284.148438 834.15625 284.152344 834.09375 284.160156 C 834.042969 284.167969 833.988281 284.183594 833.9375 284.199219 C 833.925781 284.199219 833.917969 284.203125 833.90625 284.207031 C 833.851562 284.222656 833.792969 284.25 833.734375 284.28125 C 833.726562 284.28125 833.71875 284.285156 833.71875 284.285156 C 833.664062 284.316406 833.609375 284.351562 833.558594 284.390625 L 833.511719 284.425781 L 808.503906 303.265625 C 797.925781 294.0625 784.902344 287.605469 770.546875 285.019531 L 764.957031 245.296875 C 823.355469 249.484375 870.15625 296.285156 874.34375 354.683594 Z M 923.851562 362.980469 C 923.851562 362.953125 923.847656 362.933594 923.84375 362.90625 C 923.832031 362.851562 923.820312 362.800781 923.804688 362.75 C 923.769531 362.621094 923.722656 362.5 923.660156 362.386719 C 923.644531 362.355469 923.628906 362.324219 923.609375 362.292969 C 923.5 362.117188 923.363281 361.957031 923.203125 361.824219 C 923.160156 361.789062 923.113281 361.757812 923.070312 361.730469 C 923.03125 361.699219 922.992188 361.671875 922.941406 361.652344 C 922.910156 361.632812 922.878906 361.617188 922.847656 361.597656 C 922.8125 361.578125 922.769531 361.566406 922.730469 361.546875 C 922.613281 361.5 922.496094 361.464844 922.371094 361.445312 C 922.351562 361.4375 922.328125 361.4375 922.308594 361.433594 L 922.214844 361.421875 L 876.800781 355.027344 C 872.75 295.015625 824.625 246.894531 764.613281 242.84375 L 758.214844 197.410156 C 758.210938 197.328125 758.195312 197.242188 758.175781 197.160156 C 758.160156 197.109375 758.148438 197.058594 758.128906 197.003906 C 758.007812 196.648438 757.785156 196.34375 757.488281 196.128906 C 757.398438 196.0625 757.300781 196.007812 757.203125 195.953125 C 757.152344 195.933594 757.097656 195.90625 757.046875 195.890625 C 756.9375 195.84375 756.820312 195.820312 756.707031 195.796875 C 756.652344 195.785156 756.59375 195.78125 756.535156 195.777344 C 756.453125 195.773438 756.371094 195.773438 756.289062 195.777344 C 756.230469 195.78125 756.171875 195.785156 756.113281 195.796875 C 756.058594 195.808594 756 195.820312 755.945312 195.832031 C 755.828125 195.867188 755.722656 195.90625 755.621094 195.953125 C 755.519531 196 755.421875 196.0625 755.335938 196.125 C 755.289062 196.164062 755.246094 196.195312 755.203125 196.234375 C 755.164062 196.265625 755.121094 196.308594 755.085938 196.347656 C 755.042969 196.390625 755.007812 196.433594 754.976562 196.480469 C 754.871094 196.609375 754.789062 196.761719 754.726562 196.917969 C 754.710938 196.964844 754.691406 197.011719 754.675781 197.058594 C 754.667969 197.066406 754.667969 197.078125 754.664062 197.085938 C 754.644531 197.167969 754.621094 197.25 754.609375 197.332031 L 748.207031 242.84375 C 688.191406 246.894531 640.074219 295.015625 636.03125 355.027344 L 590.609375 361.421875 C 590.554688 361.429688 590.507812 361.4375 590.457031 361.445312 C 590.328125 361.464844 590.207031 361.5 590.09375 361.546875 C 590.050781 361.566406 590.015625 361.578125 589.980469 361.597656 C 589.707031 361.726562 589.480469 361.917969 589.308594 362.152344 C 589.273438 362.199219 589.242188 362.246094 589.214844 362.292969 C 589.195312 362.324219 589.179688 362.355469 589.160156 362.386719 C 589.066406 362.558594 589 362.746094 588.96875 362.945312 C 588.964844 363 588.957031 363.050781 588.953125 363.101562 C 588.949219 363.191406 588.949219 363.277344 588.953125 363.359375 C 588.957031 363.417969 588.964844 363.46875 588.976562 363.527344 C 588.984375 363.59375 588.996094 363.65625 589.015625 363.722656 C 589.046875 363.828125 589.089844 363.929688 589.132812 364.023438 C 589.183594 364.125 589.242188 364.222656 589.308594 364.3125 C 589.339844 364.355469 589.375 364.398438 589.410156 364.441406 C 589.449219 364.484375 589.484375 364.523438 589.527344 364.558594 C 589.679688 364.699219 589.855469 364.816406 590.046875 364.898438 C 590.09375 364.921875 590.140625 364.933594 590.1875 364.949219 C 590.238281 364.972656 590.292969 364.988281 590.347656 364.996094 C 590.398438 365.015625 590.457031 365.023438 590.515625 365.027344 L 590.589844 365.039062 L 636.03125 371.433594 C 640.074219 431.441406 688.199219 479.570312 748.207031 483.617188 L 754.609375 529.128906 C 754.621094 529.214844 754.644531 529.296875 754.664062 529.375 C 754.746094 529.65625 754.890625 529.90625 755.085938 530.113281 C 755.234375 530.28125 755.417969 530.410156 755.621094 530.507812 C 755.777344 530.582031 755.945312 530.640625 756.121094 530.667969 C 756.179688 530.675781 756.230469 530.679688 756.289062 530.6875 C 756.328125 530.691406 756.371094 530.691406 756.410156 530.691406 C 756.453125 530.691406 756.496094 530.691406 756.535156 530.6875 C 756.59375 530.679688 756.644531 530.675781 756.703125 530.667969 C 756.878906 530.640625 757.046875 530.585938 757.203125 530.507812 C 757.300781 530.457031 757.398438 530.398438 757.488281 530.332031 C 757.742188 530.144531 757.953125 529.890625 758.074219 529.59375 C 758.097656 529.546875 758.113281 529.503906 758.128906 529.457031 C 758.148438 529.40625 758.160156 529.355469 758.175781 529.300781 C 758.1875 529.246094 758.195312 529.1875 758.207031 529.128906 L 758.214844 529.050781 L 764.613281 483.617188 C 824.625 479.570312 872.75 431.445312 876.800781 371.433594 L 922.230469 365.039062 C 922.3125 365.035156 922.398438 365.019531 922.480469 364.996094 C 922.53125 364.980469 922.585938 364.972656 922.636719 364.949219 C 922.679688 364.933594 922.730469 364.921875 922.777344 364.898438 C 923.070312 364.773438 923.328125 364.566406 923.515625 364.3125 C 923.550781 364.269531 923.582031 364.222656 923.609375 364.171875 C 923.628906 364.140625 923.644531 364.105469 923.660156 364.078125 C 923.757812 363.894531 923.828125 363.695312 923.851562 363.484375 C 923.863281 363.441406 923.863281 363.398438 923.867188 363.359375 C 923.875 363.269531 923.875 363.1875 923.867188 363.101562 C 923.863281 363.0625 923.863281 363.019531 923.851562 362.980469 " fill-opacity="1" fill-rule="nonzero"/><path fill="#ffffff" d="M 765.710938 363.234375 C 765.710938 363.644531 765.683594 364.046875 765.625 364.441406 C 765.605469 364.648438 765.570312 364.851562 765.53125 365.050781 C 765.285156 366.269531 764.804688 367.402344 764.140625 368.394531 L 764.136719 368.394531 C 764.023438 368.566406 763.902344 368.730469 763.785156 368.890625 L 763.777344 368.890625 C 763.535156 369.210938 763.269531 369.511719 762.980469 369.800781 C 762.695312 370.085938 762.386719 370.355469 762.066406 370.597656 L 762.066406 370.601562 C 761.90625 370.726562 761.738281 370.847656 761.566406 370.953125 C 760.574219 371.628906 759.445312 372.105469 758.226562 372.347656 C 758.027344 372.386719 757.824219 372.421875 757.621094 372.441406 C 757.230469 372.5 756.820312 372.523438 756.410156 372.523438 C 756 372.523438 755.59375 372.5 755.199219 372.441406 C 754.996094 372.421875 754.792969 372.386719 754.597656 372.347656 C 753.378906 372.105469 752.25 371.628906 751.253906 370.953125 C 751.085938 370.847656 750.917969 370.726562 750.753906 370.597656 C 750.433594 370.351562 750.132812 370.085938 749.84375 369.800781 C 749.558594 369.511719 749.289062 369.207031 749.042969 368.882812 C 748.921875 368.722656 748.800781 368.5625 748.683594 368.390625 C 748.019531 367.394531 747.539062 366.269531 747.296875 365.050781 C 747.261719 364.851562 747.222656 364.648438 747.203125 364.441406 C 747.144531 364.046875 747.121094 363.644531 747.121094 363.234375 L 747.121094 363.230469 C 747.121094 362.816406 747.144531 362.417969 747.203125 362.023438 C 747.222656 361.820312 747.253906 361.617188 747.296875 361.417969 C 747.535156 360.199219 748.019531 359.066406 748.679688 358.074219 L 748.683594 358.074219 C 748.800781 357.90625 748.914062 357.738281 749.042969 357.578125 C 749.289062 357.257812 749.554688 356.953125 749.84375 356.667969 C 750.128906 356.382812 750.429688 356.113281 750.75 355.863281 C 750.75 355.863281 750.75 355.863281 750.753906 355.863281 C 750.917969 355.734375 751.078125 355.617188 751.25 355.503906 C 752.242188 354.835938 753.378906 354.359375 754.597656 354.113281 C 754.792969 354.078125 754.996094 354.042969 755.199219 354.019531 C 755.59375 353.960938 756 353.9375 756.410156 353.9375 C 756.820312 353.9375 757.230469 353.960938 757.621094 354.019531 C 757.824219 354.042969 758.027344 354.078125 758.226562 354.113281 C 759.445312 354.359375 760.578125 354.835938 761.574219 355.503906 C 761.746094 355.617188 761.90625 355.734375 762.066406 355.863281 L 762.070312 355.863281 C 762.394531 356.113281 762.695312 356.375 762.980469 356.664062 C 763.269531 356.949219 763.535156 357.25 763.785156 357.566406 L 763.785156 357.574219 C 763.910156 357.734375 764.027344 357.902344 764.140625 358.066406 C 764.808594 359.066406 765.285156 360.199219 765.53125 361.417969 C 765.574219 361.617188 765.605469 361.820312 765.625 362.023438 C 765.683594 362.417969 765.710938 362.816406 765.710938 363.230469 Z M 769.28125 364.441406 C 769.320312 364.039062 769.339844 363.640625 769.339844 363.234375 L 769.339844 363.230469 C 769.339844 362.824219 769.320312 362.421875 769.28125 362.023438 C 769.269531 361.820312 769.242188 361.617188 769.210938 361.417969 C 768.90625 359.207031 768.027344 357.171875 766.742188 355.464844 C 766.621094 355.304688 766.492188 355.148438 766.363281 354.992188 C 766.363281 354.988281 766.363281 354.988281 766.363281 354.988281 C 766.105469 354.675781 765.832031 354.378906 765.546875 354.097656 C 765.265625 353.8125 764.96875 353.542969 764.652344 353.28125 L 764.648438 353.28125 C 764.492188 353.144531 764.335938 353.019531 764.175781 352.902344 C 762.46875 351.617188 760.4375 350.742188 758.226562 350.4375 C 758.023438 350.402344 757.820312 350.378906 757.617188 350.363281 C 757.21875 350.324219 756.816406 350.304688 756.410156 350.304688 C 756.003906 350.304688 755.601562 350.324219 755.199219 350.363281 C 754.996094 350.378906 754.792969 350.402344 754.597656 350.4375 C 752.386719 350.742188 750.355469 351.617188 748.648438 352.902344 C 748.488281 353.019531 748.328125 353.152344 748.171875 353.28125 C 747.855469 353.542969 747.554688 353.8125 747.277344 354.097656 C 746.984375 354.382812 746.714844 354.679688 746.460938 354.992188 C 746.328125 355.148438 746.203125 355.308594 746.078125 355.472656 C 744.796875 357.175781 743.925781 359.207031 743.617188 361.417969 C 743.585938 361.617188 743.5625 361.820312 743.542969 362.023438 C 743.507812 362.421875 743.488281 362.824219 743.488281 363.230469 L 743.488281 363.234375 C 743.488281 363.640625 743.507812 364.039062 743.542969 364.441406 C 743.566406 364.644531 743.585938 364.847656 743.617188 365.050781 C 743.929688 367.253906 744.796875 369.285156 746.082031 370.992188 C 746.203125 371.152344 746.328125 371.308594 746.464844 371.464844 C 746.71875 371.777344 746.988281 372.078125 747.277344 372.363281 C 747.5625 372.652344 747.855469 372.921875 748.171875 373.183594 C 748.328125 373.3125 748.488281 373.4375 748.648438 373.5625 C 750.355469 374.847656 752.386719 375.71875 754.597656 376.027344 C 754.792969 376.058594 754.996094 376.082031 755.199219 376.101562 C 755.601562 376.136719 756.003906 376.15625 756.410156 376.15625 C 756.816406 376.15625 757.222656 376.136719 757.621094 376.101562 C 757.824219 376.082031 758.027344 376.058594 758.226562 376.027344 C 760.4375 375.71875 762.46875 374.847656 764.175781 373.5625 C 764.335938 373.4375 764.492188 373.3125 764.648438 373.183594 C 764.652344 373.183594 764.652344 373.183594 764.652344 373.183594 C 764.964844 372.921875 765.261719 372.652344 765.546875 372.363281 C 765.832031 372.078125 766.105469 371.78125 766.359375 371.46875 L 766.363281 371.46875 C 766.488281 371.3125 766.613281 371.15625 766.738281 370.996094 C 766.738281 370.992188 766.738281 370.992188 766.738281 370.992188 C 768.023438 369.285156 768.898438 367.253906 769.210938 365.050781 C 769.242188 364.847656 769.261719 364.644531 769.28125 364.441406 " fill-opacity="1" fill-rule="nonzero"/></svg>