<svg xmlns="http://www.w3.org/2000/svg" xmlns:xlink="http://www.w3.org/1999/xlink" zoomAndPan="magnify" viewBox="514 108 476 533" preserveAspectRatio="xMidYMid meet" version="1.0"><defs><clipPath id="169d077677"><path d="M 590 120.363281 L 978.21875 120.363281 L 978.21875 583 L 590 583 Z M 590 120.363281 " clip-rule="nonzero"/></clipPath><clipPath id="44cfc778ed"><path d="M 526.71875 559 L 915 559 L 915 628.863281 L 526.71875 628.863281 Z M 526.71875 559 " clip-rule="nonzero"/></clipPath></defs><path fill="#ffffff" d="M 715.40625 258.632812 C 714.367188 258.394531 713.320312 258.183594 712.277344 257.964844 L 712.441406 261.273438 C 713.214844 261.402344 713.992188 261.523438 714.765625 261.664062 C 716.363281 261.957031 717.953125 262.296875 719.53125 262.667969 L 720.710938 277.703125 L 722.089844 263.316406 C 722.730469 263.488281 723.371094 263.660156 724.007812 263.84375 C 727.023438 264.734375 730.019531 265.804688 732.636719 267.390625 C 733.921875 268.1875 735.171875 269.117188 735.878906 270.324219 C 736.28125 270.925781 736.402344 271.539062 736.46875 272.273438 L 736.585938 274.6875 C 736.738281 277.902344 736.921875 281.121094 737.132812 284.339844 C 737.339844 281.121094 737.527344 277.902344 737.679688 274.6875 L 737.796875 272.273438 C 737.816406 271.417969 737.679688 270.382812 737.230469 269.601562 C 736.421875 267.9375 735.0625 266.785156 733.71875 265.773438 C 732.347656 264.773438 730.875 263.992188 729.382812 263.277344 C 727.890625 262.554688 726.359375 261.949219 724.820312 261.375 C 721.734375 260.25 718.574219 259.398438 715.40625 258.632812 " fill-opacity="1" fill-rule="nonzero"/><path fill="#ffffff" d="M 724.984375 224.367188 C 724.332031 223.03125 723.242188 222.109375 722.164062 221.300781 C 721.0625 220.492188 719.878906 219.863281 718.679688 219.289062 C 717.484375 218.710938 716.257812 218.222656 715.019531 217.765625 C 713.363281 217.160156 711.679688 216.660156 709.988281 216.207031 L 709.988281 218.636719 C 710.25 218.699219 710.515625 218.742188 710.777344 218.804688 L 711.722656 230.871094 L 712.828125 219.320312 C 713.34375 219.457031 713.859375 219.597656 714.367188 219.746094 C 716.789062 220.460938 719.191406 221.320312 721.296875 222.59375 C 722.324219 223.230469 723.332031 223.980469 723.894531 224.945312 C 724.222656 225.429688 724.320312 225.921875 724.367188 226.511719 L 724.464844 228.453125 C 724.585938 231.03125 724.734375 233.617188 724.902344 236.195312 C 725.070312 233.617188 725.21875 231.03125 725.34375 228.453125 L 725.4375 226.511719 C 725.453125 225.824219 725.34375 224.996094 724.984375 224.367188 " fill-opacity="1" fill-rule="nonzero"/><path fill="#fbb03b" d="M 925.230469 187.363281 L 725.4375 212.242188 L 925.230469 237.125 Z M 925.230469 187.363281 " fill-opacity="1" fill-rule="nonzero"/><g clip-path="url(#169d077677)"><path fill="#ffffff" d="M 705.597656 215.175781 C 700.167969 214.015625 694.683594 213.257812 689.171875 212.816406 L 689.171875 215.882812 C 690.03125 215.941406 690.890625 215.996094 691.746094 216.0625 C 696.394531 216.410156 701.019531 216.984375 705.597656 217.769531 L 705.597656 232.695312 C 700.492188 231.699219 694.59375 230.949219 688.179688 230.511719 L 688.179688 199.414062 L 705.597656 199.414062 Z M 684.210938 212.496094 C 681.613281 212.363281 679.015625 212.269531 676.417969 212.242188 C 673.324219 212.238281 670.222656 212.308594 667.125 212.449219 L 667.125 215.558594 C 670.214844 215.445312 673.304688 215.398438 676.398438 215.4375 C 679.003906 215.433594 681.609375 215.503906 684.210938 215.617188 L 684.210938 230.285156 C 681.257812 230.148438 678.222656 230.070312 675.113281 230.070312 C 672.042969 230.070312 669.042969 230.148438 666.128906 230.277344 L 666.128906 199.414062 L 684.210938 199.414062 Z M 662.160156 212.757812 C 656.652344 213.171875 651.167969 213.867188 645.738281 214.972656 L 645.738281 217.507812 L 645.789062 217.5 C 650.835938 216.714844 655.929688 216.15625 661.039062 215.859375 C 661.414062 215.832031 661.785156 215.8125 662.160156 215.792969 L 662.160156 230.503906 C 655.75 230.933594 649.855469 231.683594 644.742188 232.671875 L 644.742188 199.414062 L 662.160156 199.414062 Z M 972.140625 561.625 C 971.113281 561.855469 970.074219 562.042969 969.050781 562.257812 L 965.953125 562.785156 C 961.832031 563.46875 957.695312 563.894531 953.582031 564.214844 C 951.53125 564.402344 949.453125 564.449219 947.410156 564.585938 C 945.351562 564.652344 943.308594 564.738281 941.253906 564.738281 C 937.152344 564.75 933.074219 564.75 928.992188 564.503906 L 925.941406 564.371094 L 922.894531 564.164062 L 919.851562 563.953125 C 918.839844 563.875 917.824219 563.757812 916.8125 563.65625 C 912.769531 563.292969 908.730469 562.832031 904.714844 562.285156 C 896.679688 561.199219 888.699219 559.71875 880.769531 558.082031 L 874.828125 556.808594 L 868.914062 555.394531 L 865.960938 554.691406 L 863.019531 553.917969 L 857.132812 552.390625 C 849.3125 550.191406 841.527344 547.9375 833.796875 545.386719 L 827.996094 543.503906 L 822.226562 541.5 L 816.453125 539.5 L 810.71875 537.371094 C 808.808594 536.65625 806.878906 536 804.976562 535.261719 L 799.269531 533.027344 L 793.492188 530.820312 L 787.285156 528.503906 C 771.667969 522.761719 755.410156 518.386719 738.777344 515.789062 L 730.214844 433.4375 L 743.175781 400.449219 L 726.78125 400.449219 L 716.738281 303.859375 C 729.261719 301.003906 737.132812 296.886719 737.132812 292.296875 C 737.132812 287.015625 726.664062 282.351562 710.667969 279.53125 L 710.667969 251.34375 C 719.46875 249.089844 724.902344 246 724.902344 242.585938 C 724.902344 238.96875 718.777344 235.707031 708.996094 233.417969 L 708.996094 199.496094 L 725.4375 199.496094 C 725.4375 199.496094 715.011719 180.304688 685.613281 173.328125 C 686.300781 172.359375 686.699219 171.28125 686.699219 170.136719 C 686.699219 167.109375 683.984375 164.503906 680.09375 163.335938 L 675.171875 120.375 L 670.246094 163.335938 C 666.355469 164.503906 663.640625 167.109375 663.640625 170.136719 C 663.640625 171.28125 664.039062 172.359375 664.726562 173.328125 C 635.328125 180.304688 624.902344 199.496094 624.902344 199.496094 L 641.34375 199.496094 L 641.34375 215.984375 C 637.59375 216.933594 633.894531 218.144531 630.402344 219.960938 C 629.234375 220.601562 628.09375 221.316406 627.070312 222.226562 C 626.570312 222.695312 626.082031 223.1875 625.699219 223.789062 C 625.285156 224.355469 625.019531 225.070312 624.929688 225.789062 L 624.902344 226.335938 L 624.925781 226.820312 L 625.078125 229.726562 L 625.320312 233.601562 L 625.5625 229.726562 L 625.664062 227.789062 L 625.710938 226.820312 L 625.738281 226.339844 L 625.808594 225.921875 C 626.050781 224.820312 626.90625 223.910156 627.863281 223.179688 C 628.835938 222.449219 629.953125 221.871094 631.097656 221.371094 C 632.660156 220.664062 634.304688 220.113281 635.972656 219.636719 L 637.566406 230.871094 L 638.191406 219.035156 C 638.226562 219.027344 638.261719 219.019531 638.296875 219.007812 C 639.304688 218.761719 640.320312 218.539062 641.34375 218.328125 L 641.34375 233.394531 C 631.492188 235.679688 625.320312 238.953125 625.320312 242.585938 C 625.320312 246 630.773438 249.097656 639.601562 251.359375 L 639.601562 257.683594 C 639.066406 257.789062 638.53125 257.878906 637.996094 257.992188 C 631.640625 259.347656 625.28125 261.050781 619.394531 264.109375 C 617.941406 264.910156 616.515625 265.796875 615.242188 266.9375 C 614.621094 267.519531 614.007812 268.128906 613.53125 268.878906 C 613.019531 269.589844 612.6875 270.476562 612.578125 271.371094 L 612.542969 272.054688 L 612.574219 272.660156 L 612.761719 276.28125 L 613.0625 281.105469 L 613.363281 276.28125 L 613.550781 272.660156 L 613.582031 272.058594 L 613.667969 271.539062 C 613.96875 270.167969 615.039062 269.03125 616.230469 268.125 C 617.441406 267.210938 618.832031 266.492188 620.257812 265.863281 C 622.207031 264.984375 624.253906 264.300781 626.335938 263.707031 L 628.320312 277.703125 L 629.097656 262.960938 C 629.140625 262.949219 629.183594 262.933594 629.226562 262.925781 C 632.304688 262.171875 635.421875 261.542969 638.5625 261.042969 C 638.910156 260.992188 639.253906 260.945312 639.601562 260.894531 L 639.601562 279.515625 C 623.5625 282.335938 613.0625 287.011719 613.0625 292.296875 C 613.0625 296.820312 620.722656 300.890625 632.949219 303.738281 L 622.890625 400.449219 L 606.5 400.449219 L 619.460938 433.4375 L 609.246094 531.648438 L 647.378906 306.25 C 655.722656 307.300781 665.128906 307.894531 675.097656 307.894531 C 676.847656 307.894531 678.574219 307.871094 680.285156 307.835938 L 689.425781 514.058594 C 686.964844 514.289062 684.507812 514.554688 682.058594 514.871094 L 675.402344 515.847656 L 668.796875 517.140625 C 666.597656 517.542969 664.429688 518.171875 662.253906 518.6875 C 661.167969 518.953125 660.085938 519.226562 659.007812 519.515625 L 655.789062 520.492188 C 647.21875 523.03125 638.890625 526.304688 630.953125 530.261719 C 623.03125 534.25 615.492188 538.910156 608.5625 544.277344 C 601.679688 549.667969 595.199219 555.636719 590.171875 562.667969 C 597.484375 558.199219 605.125 554.742188 612.8125 551.703125 C 620.535156 548.738281 628.328125 546.273438 636.207031 544.398438 C 651.945312 540.597656 667.878906 538.945312 683.707031 539.015625 C 691.625 539.128906 699.511719 539.449219 707.367188 540.425781 C 711.296875 540.742188 715.203125 541.472656 719.113281 541.980469 C 721.066406 542.238281 723.011719 542.683594 724.957031 543.023438 C 726.902344 543.398438 728.855469 543.671875 730.789062 544.113281 C 746.304688 547.359375 761.59375 551.90625 776.640625 557.453125 L 782.285156 559.523438 L 788.335938 561.785156 L 794.449219 564.023438 C 796.496094 564.761719 798.566406 565.433594 800.625 566.125 L 806.820312 568.167969 C 808.898438 568.820312 810.988281 569.441406 813.078125 570.054688 L 819.351562 571.882812 L 825.6875 573.535156 C 834.128906 575.753906 842.722656 577.492188 851.335938 579.023438 C 860.003906 580.382812 868.691406 581.609375 877.476562 582.148438 C 886.25 582.738281 895.054688 583.007812 903.863281 582.542969 C 906.058594 582.480469 908.265625 582.269531 910.457031 582.140625 C 912.652344 582.011719 914.851562 581.796875 917.039062 581.539062 C 918.136719 581.410156 919.226562 581.304688 920.320312 581.160156 L 923.59375 580.6875 L 926.859375 580.210938 L 930.113281 579.625 C 938.765625 577.980469 947.316406 575.789062 955.503906 572.597656 C 959.605469 571.054688 963.605469 569.253906 967.460938 567.203125 C 969.375 566.148438 971.269531 565.085938 973.09375 563.886719 C 974.914062 562.714844 976.691406 561.441406 978.304688 560.015625 C 976.265625 560.683594 974.203125 561.171875 972.140625 561.625 " fill-opacity="1" fill-rule="nonzero"/></g><g clip-path="url(#44cfc778ed)"><path fill="#ffffff" d="M 905.613281 608.441406 L 902.515625 608.96875 C 898.394531 609.652344 894.257812 610.078125 890.140625 610.398438 C 888.09375 610.585938 886.015625 610.628906 883.972656 610.769531 C 881.914062 610.832031 879.867188 610.921875 877.816406 610.921875 C 873.714844 610.933594 869.636719 610.933594 865.554688 610.6875 L 862.507812 610.554688 L 859.457031 610.347656 L 856.414062 610.136719 C 855.402344 610.058594 854.386719 609.9375 853.375 609.839844 C 849.332031 609.476562 845.292969 609.015625 841.277344 608.460938 C 833.242188 607.378906 825.257812 605.898438 817.328125 604.261719 L 811.394531 602.992188 L 805.476562 601.574219 L 802.523438 600.871094 L 799.578125 600.101562 L 793.695312 598.570312 C 785.878906 596.375 778.089844 594.121094 770.359375 591.570312 L 764.5625 589.6875 L 758.789062 587.679688 L 753.019531 585.679688 L 747.28125 583.550781 C 745.371094 582.835938 743.441406 582.183594 741.539062 581.441406 L 735.828125 579.210938 L 730.050781 577.003906 L 723.84375 574.683594 C 707.265625 568.585938 689.972656 564.007812 672.269531 561.488281 C 670.066406 561.136719 667.824219 560.953125 665.601562 560.683594 C 663.371094 560.472656 661.164062 560.164062 658.921875 560.039062 C 654.441406 559.777344 649.980469 559.4375 645.480469 559.46875 C 636.519531 559.292969 627.515625 559.914062 618.621094 561.050781 L 611.964844 562.03125 L 605.359375 563.324219 C 603.160156 563.726562 600.992188 564.351562 598.816406 564.867188 C 597.730469 565.136719 596.648438 565.40625 595.570312 565.699219 L 592.351562 566.671875 C 583.78125 569.210938 575.453125 572.488281 567.515625 576.441406 C 559.59375 580.433594 552.054688 585.09375 545.125 590.457031 C 538.242188 595.847656 531.761719 601.820312 526.734375 608.851562 C 534.046875 604.378906 541.6875 600.921875 549.375 597.882812 C 557.097656 594.921875 564.890625 592.457031 572.769531 590.578125 C 588.507812 586.78125 604.441406 585.128906 620.269531 585.199219 C 628.1875 585.308594 636.074219 585.632812 643.929688 586.605469 C 647.859375 586.925781 651.765625 587.65625 655.675781 588.160156 C 657.632812 588.421875 659.574219 588.867188 661.519531 589.207031 C 663.464844 589.578125 665.417969 589.855469 667.351562 590.296875 C 682.867188 593.542969 698.160156 598.089844 713.203125 603.636719 L 718.851562 605.703125 L 724.898438 607.964844 L 731.011719 610.203125 C 733.054688 610.941406 735.125 611.617188 737.1875 612.308594 L 743.382812 614.351562 C 745.460938 615.003906 747.550781 615.625 749.640625 616.238281 L 755.914062 618.066406 L 762.25 619.714844 C 770.691406 621.933594 779.28125 623.671875 787.898438 625.207031 C 796.566406 626.566406 805.25 627.792969 814.042969 628.332031 C 822.8125 628.921875 831.613281 629.1875 840.425781 628.722656 C 842.621094 628.664062 844.832031 628.453125 847.023438 628.324219 C 849.214844 628.195312 851.414062 627.976562 853.601562 627.722656 C 854.699219 627.589844 855.789062 627.484375 856.882812 627.339844 L 860.15625 626.871094 L 863.417969 626.390625 L 866.675781 625.804688 C 875.328125 624.160156 883.878906 621.96875 892.070312 618.78125 C 896.167969 617.238281 900.167969 615.433594 904.023438 613.386719 C 905.941406 612.332031 907.835938 611.269531 909.652344 610.070312 C 911.480469 608.894531 913.253906 607.625 914.867188 606.195312 C 912.828125 606.863281 910.765625 607.355469 908.699219 607.808594 C 907.675781 608.039062 906.632812 608.226562 905.613281 608.441406 " fill-opacity="1" fill-rule="nonzero"/></g><path fill="#fbb03b" d="M 875.042969 175.070312 L 743.070312 199.414062 L 871.714844 161.214844 Z M 875.042969 175.070312 " fill-opacity="1" fill-rule="nonzero"/><path fill="#fbb03b" d="M 895.011719 264.945312 L 743.070312 226.203125 L 897.902344 250.988281 Z M 895.011719 264.945312 " fill-opacity="1" fill-rule="nonzero"/></svg>